<?xml version="1.0" encoding="utf-8"?>
<!-- Generator: Adobe Illustrator 22.0.1, SVG Export Plug-In . SVG Version: 6.00 Build 0)  -->
<svg version="1.1" id="Layer_1" xmlns="http://www.w3.org/2000/svg" xmlns:xlink="http://www.w3.org/1999/xlink" x="0px" y="0px"
	 viewBox="0 0 858.7 288" style="enable-background:new 0 0 858.7 288;" xml:space="preserve">
<style type="text/css">
	.st0{opacity:0.8;fill:#fff;}
</style>
<path class="st0" d="M437.8,137.8c-0.2-0.1-0.5,0-0.7,0.2l-5.8-6.3c0.1-0.1,0.2-0.2,0.2-0.4c0.1-0.4-0.2-0.9-0.6-1
	c-0.4-0.1-0.9,0.2-1,0.6c0,0,0,0.1,0,0.1l-38.8,0.5c0-0.3-0.3-0.6-0.6-0.7c-0.3-0.1-0.6,0.1-0.8,0.3l-18.3-11c0-0.1,0.1-0.1,0.1-0.2
	c0.1-0.4-0.2-0.9-0.6-1c-0.4-0.1-0.9,0.2-1,0.6c0,0.1,0,0.1,0,0.2l-28.4,4.1c-0.1-0.3-0.3-0.5-0.6-0.6c-0.4-0.1-0.7,0.1-0.9,0.4
	l-29.4-11.4c0,0,0,0,0,0c0.1-0.4-0.2-0.9-0.6-1c-0.4-0.1-0.9,0.2-1,0.6c0,0.1,0,0.3,0,0.4l-21.1,8.9c-0.1-0.2-0.3-0.4-0.5-0.4
	c-0.4-0.1-0.7,0.1-0.9,0.4l-26.2-11c0,0,0,0,0,0c0.1-0.4-0.2-0.9-0.6-1c-0.4-0.1-0.8,0.1-0.9,0.5l-34.3-9.8c0.1-0.4-0.2-0.8-0.6-0.9
	c-0.2,0-0.4,0-0.6,0.1l-23.7-32.1c0.1-0.1,0.2-0.2,0.2-0.4c0.1-0.4-0.2-0.9-0.6-1c-0.4-0.1-0.9,0.2-1,0.6c0,0,0,0.1,0,0.1l-40.6,3.3
	c-0.1-0.3-0.3-0.5-0.6-0.6c-0.4-0.1-0.9,0.2-1,0.6c0,0.1,0,0.3,0,0.4l-33.7,13.7c-0.1-0.2-0.3-0.3-0.5-0.4c-0.4-0.1-0.9,0.2-1,0.6
	c-0.1,0.2,0,0.4,0.1,0.6l-28.9,23.7c-0.1-0.1-0.2-0.2-0.4-0.2c-0.4-0.1-0.9,0.2-1,0.6c0,0.1,0,0.1,0,0.2l-36.8,6
	c-0.1-0.3-0.3-0.5-0.6-0.6c-0.4-0.1-0.9,0.2-1,0.6c-0.1,0.4,0.2,0.9,0.6,1c0.2,0,0.4,0,0.6-0.1l13.1,17.8c-0.1,0.1-0.2,0.2-0.3,0.4
	c-0.1,0.4,0.2,0.9,0.6,1c0.3,0.1,0.6,0,0.8-0.2l25.2,18.4c0,0.1-0.1,0.1-0.1,0.2c-0.1,0.4,0.2,0.9,0.6,1c0.4,0.1,0.9-0.2,1-0.6
	c0-0.1,0-0.3,0-0.4l29.6-11.4c0.1,0.2,0.3,0.4,0.5,0.4c0.4,0.1,0.8-0.1,0.9-0.5l35.3,8.8c0,0.4,0.2,0.8,0.6,0.9
	c0.3,0.1,0.6,0,0.7-0.2l28.9,22.5c0,0.1-0.1,0.1-0.1,0.2c-0.1,0.4,0.2,0.9,0.6,1c0.4,0.1,0.9-0.2,1-0.6c0-0.1,0-0.2,0-0.4l14.7-4.4
	c0.1,0.2,0.3,0.4,0.6,0.5c0.3,0.1,0.7-0.1,0.9-0.4l28.1,14c0,0,0,0.1,0,0.1c-0.1,0.4,0.2,0.9,0.6,1c0.4,0.1,0.9-0.2,1-0.6
	c0-0.2,0-0.3,0-0.4l32.7-15.8c0.1,0.2,0.3,0.3,0.5,0.4c0.3,0.1,0.6-0.1,0.8-0.3l28.7,17.3c0,0-0.1,0.1-0.1,0.1
	c-0.1,0.4,0.2,0.9,0.6,1c0.4,0.1,0.9-0.2,1-0.6c0-0.2,0-0.4-0.1-0.5l22.2-12.9c0.1,0.2,0.3,0.3,0.5,0.3c0.4,0.1,0.9-0.2,1-0.6
	c0-0.1,0-0.2,0-0.4l32.4-12.1c0.1,0.2,0.3,0.4,0.5,0.4c0.4,0.1,0.9-0.2,1-0.6c0.1-0.2,0-0.5-0.1-0.6l7.8-6.7l33.3-0.1
	c0,0.3,0.3,0.6,0.6,0.7c0.4,0.1,0.9-0.2,1-0.6c0-0.1,0-0.3,0-0.4l34-13c0.1,0.2,0.3,0.4,0.5,0.4c0.4,0.1,0.9-0.2,1-0.6
	C438.5,138.3,438.2,137.9,437.8,137.8z M54.2,115.1l36.8-6c0,0.1,0.1,0.2,0.1,0.3l-23.2,24.2c-0.1-0.1-0.2-0.1-0.3-0.1
	c-0.2,0-0.4,0-0.6,0.1l-13.1-17.8c0.1-0.1,0.2-0.2,0.3-0.4C54.2,115.2,54.2,115.1,54.2,115.1z M326.3,171.6
	c-0.1-0.1-0.2-0.2-0.3-0.2l7-18.6c0.3,0,0.5-0.2,0.6-0.5l18.8,5.3L326.3,171.6z M238.1,183.3c-0.1,0-0.2,0-0.3,0l-7.7-35.2
	c0.2-0.1,0.4-0.3,0.5-0.5l19.4,3.3c0,0.3,0.1,0.6,0.4,0.8L238.1,183.3C238.1,183.3,238.1,183.3,238.1,183.3z M208.5,168.6
	c-0.1,0-0.3,0-0.4,0l-13.2-30.1c0.2-0.1,0.3-0.2,0.3-0.4l33.9,9.1c0,0.2,0,0.4,0.2,0.6l-20.5,20.9
	C208.7,168.6,208.6,168.6,208.5,168.6z M68.1,133.7l23.2-24.2c0.1,0.1,0.2,0.1,0.3,0.1c0.1,0,0.2,0,0.3,0l3.6,18.5
	c-0.3,0.1-0.5,0.3-0.6,0.6c0,0.1,0,0.2,0,0.2l-26.7,5C68.2,133.8,68.1,133.8,68.1,133.7z M122.3,84.7l18.5,19.8
	c-0.1,0.1-0.1,0.2-0.2,0.3l-19.2-3c0-0.4-0.2-0.8-0.6-0.8c0,0,0,0-0.1,0l1.2-16.1C122,84.9,122.2,84.9,122.3,84.7z M198.9,67.1
	l-4.2,26.4c-0.4,0-0.7,0.2-0.8,0.6c0,0,0,0,0,0l-18.4-1.8c0-0.2-0.1-0.4-0.2-0.5L198.7,67C198.7,67.1,198.8,67.1,198.9,67.1z
	 M222.9,99.7c0,0.1,0,0.1,0,0.2l-13.6,4.3l-14-9.5c0,0,0-0.1,0.1-0.1L222.9,99.7z M370,120.3c0.1,0.1,0.2,0.2,0.4,0.3l-8.6,30.6
	l-15.2-19.5L370,120.3z M390.9,132.3c0.1-0.1,0.2-0.2,0.3-0.4l26.6,6.1c0,0,0,0,0,0l-23,1L390.9,132.3z M417.8,138.3
	c0,0.1,0.1,0.2,0.1,0.3l-15.2,13c-0.1-0.1-0.2-0.2-0.4-0.2c-0.2,0-0.4,0-0.5,0.1l-7-12.1L417.8,138.3z M418,138.7
	c0.1,0.1,0.2,0.2,0.4,0.2c0.4,0.1,0.9-0.2,1-0.6c0,0,0-0.1,0-0.1l1.5,0l-16.9,12.4L418,138.7z M419.4,138.1
	C419.4,138.1,419.4,138,419.4,138.1l2.5-0.6l-0.9,0.7L419.4,138.1z M383.1,139.1c-0.1-0.1-0.2-0.1-0.3-0.2c-0.1,0-0.2,0-0.3,0
	l6.3-5.7L383.1,139.1z M381.8,139.5C381.8,139.5,381.8,139.5,381.8,139.5c-0.1,0.2,0,0.4,0.1,0.6l-2.2,1.4L381.8,139.5z
	 M383.2,139.2l6.7-6.9c0.1,0.1,0.2,0.1,0.3,0.2c0.2,0,0.4,0,0.5-0.1l3.9,6.7l-11.2,0.5C383.4,139.4,383.3,139.3,383.2,139.2z
	 M429.6,135.7l-7,1.5l2.8-2L429.6,135.7C429.6,135.6,429.6,135.7,429.6,135.7z M429.6,135.4C429.6,135.4,429.6,135.4,429.6,135.4
	l-4-0.4l4.6-3.4c0.1,0.1,0.2,0.2,0.4,0.2c0,0,0,0,0.1,0l-0.3,2.9C430,134.8,429.7,135,429.6,135.4z M425.3,135l-1-0.1l5.3-3.1
	L425.3,135z M425,135.2l-2.9,2.2l-2.8,0.6c0,0,0-0.1,0-0.1l4.7-2.7L425,135.2z M419.2,137.7c-0.1-0.2-0.3-0.3-0.5-0.3
	c-0.4-0.1-0.8,0.1-0.9,0.5l-26-6l32,3.2L419.2,137.7z M382.2,138.9l-0.4-0.7l7.1-5.2L382.2,138.9z M382.1,139l-3.4,3.1l-14.3,9
	l17.3-12.8L382.1,139z M308,165.4c-0.1-0.1-0.2-0.2-0.3-0.3l6.5-17.9l4.3,1.1l2.9,9.8L308,165.4z M230.7,147.4c0-0.2,0-0.4-0.1-0.5
	l10.2-9.1l9.6,12.5c-0.1,0.1-0.2,0.2-0.2,0.4L230.7,147.4z M195.3,137.9c0-0.1,0-0.2,0-0.3l24.8-9.9l9.4,18.9
	c-0.1,0.1-0.2,0.2-0.3,0.4L195.3,137.9z M121.3,102.1C121.3,102.1,121.4,102.1,121.3,102.1l19.3,3c0,0.3,0.1,0.6,0.4,0.7l-2.3,5.1
	L121.3,102.1z M223.5,100.5c0.1,0,0.1,0,0.2,0l0.5,13.1c-0.2,0-0.4,0.1-0.5,0.3l-6.9-4.7l6.5-8.8
	C223.4,100.5,223.5,100.5,223.5,100.5z M240.9,137.6l15.7-14.1l-5.7,26.5c-0.2,0-0.3,0-0.5,0.1L240.9,137.6z M213.9,114.2l6,3.5
	l-3.3,2.6l-2.9-5.9C213.8,114.4,213.8,114.3,213.9,114.2z M213.9,114.1c0-0.1,0.1-0.1,0.1-0.2c0,0,0,0,0,0l9.5,0.5
	c0,0.1,0,0.2,0.1,0.4l-3.6,2.9L213.9,114.1z M223.7,114.9c0.1,0.1,0.2,0.2,0.4,0.2c0.1,0,0.2,0,0.2,0l0.9,5.6l-5.1-3L223.7,114.9z
	 M229.3,123.8l-3.1,1.2l-0.7-4l3.8,2.2c0,0.1-0.1,0.1-0.1,0.2C229.3,123.6,229.3,123.7,229.3,123.8z M229.4,124
	c0.1,0.2,0.3,0.3,0.5,0.4c0,0,0.1,0,0.1,0l-0.2,22l-3.6-21.1L229.4,124z M229.4,123.1l-3.9-2.3l-1-5.7c0.1,0,0.1,0,0.2-0.1l4.9,7.9
	C229.5,123,229.5,123.1,229.4,123.1z M212.4,113.7l-27.7-1.4c0,0,0-0.1,0-0.1l20.6-6.5l7.3,7.6C212.5,113.4,212.5,113.5,212.4,113.7
	C212.4,113.6,212.4,113.6,212.4,113.7z M213,114.6c0.2,0,0.3,0,0.4,0l2.9,5.9l-21.4,16.8c0,0,0,0,0,0l17.8-22.8
	C212.9,114.5,213,114.6,213,114.6z M195.2,137.4l21.3-16.8l3.4,6.9L195.2,137.4C195.2,137.4,195.2,137.4,195.2,137.4z M216.7,120.5
	l3.4-2.7l5.3,3.1l0.7,4.2l-5.9,2.4L216.7,120.5z M226.1,125.3l3.6,21.2c0,0,0,0,0,0l-9.4-18.9L226.1,125.3z M230.1,146.5
	c0,0-0.1,0-0.1,0l0.2-22.1c0.1,0,0.2,0,0.3-0.1l10.1,13.3l-10.2,9.1C230.3,146.6,230.2,146.5,230.1,146.5z M230.6,124.2
	c0.1-0.1,0.2-0.2,0.2-0.4c0-0.1,0-0.1,0-0.2l26.2-2.6l-0.5,2.1l-15.9,14.3L230.6,124.2z M256.9,123.2l2.1-1.9
	c0.1,0.1,0.1,0.1,0.2,0.1l-7.7,26.7L256.9,123.2z M258.7,120.7C258.7,120.7,258.7,120.7,258.7,120.7l-1.3,0.2l0.1-0.4L258.7,120.7z
	 M258.7,120.9c0,0.1,0.1,0.2,0.1,0.3l-1.9,1.7l0.4-1.9L258.7,120.9z M261,123.4l14.5,24.9l-0.5,1.1l-0.9,0L261,123.4z M318.2,118.6
	l7,16l-8.3,5.7c-0.1-0.1-0.2-0.2-0.4-0.3c0,0,0,0-0.1,0l1.3-21.8L318.2,118.6z M339.1,134.5c0,0.1-0.1,0.1-0.1,0.2
	c0,0.1,0,0.2,0,0.3l-1.3,0.3l0.4-1.6L339.1,134.5z M332.7,151.2l-5.7-13l10.4-2.7l-4.4,15.7C333,151.2,332.9,151.2,332.7,151.2z
	 M317.1,140.5l8.2-5.7l1.4,3.3l-9.6,2.5C317.1,140.6,317.1,140.6,317.1,140.5z M317.1,141.3c0-0.1,0.1-0.1,0.1-0.2
	c0-0.1,0-0.2,0-0.3l9.7-2.5l5.7,13c-0.1,0-0.2,0.1-0.2,0.2L317.1,141.3z M337.6,135.5l1.4-0.4c0.1,0.2,0.2,0.3,0.4,0.4l-0.5,1.4
	l-5.4,13.7L337.6,135.5z M337.5,135.4l-10.5,2.7l-1.5-3.4l7.3-5l5.2,3.9L337.5,135.4z M325.4,134.6l-6.9-15.7l14.1,10.7L325.4,134.6
	z M302,143.9l-7.9-2c0,0,0,0,0-0.1l21.3-0.8L302,143.9z M276.9,149.2L276.9,149.2l10.1-4.5l-9.2,4.3L276.9,149.2z M275.7,148.8
	c-0.1,0.1-0.3,0.3-0.3,0.5c0,0.1,0,0.1,0,0.1l-0.2,0l0.4-0.9L275.7,148.8z M275.1,149.6l0.3,0c0,0.1,0.1,0.2,0.1,0.3l-0.3,0.2
	c-0.1-0.1-0.1-0.1-0.2-0.2L275.1,149.6z M275.3,150.2C275.3,150.2,275.3,150.2,275.3,150.2l0.3-0.3c0,0,0.1,0.1,0.1,0.1L275.3,150.2
	z M277,149.4L277,149.4L277,149.4C277,149.4,277,149.4,277,149.4z M278.4,148.8l14.2-6.7c0,0.1,0.1,0.1,0.1,0.1l-3.5,4.3
	L278.4,148.8z M292.9,142.4c0.1,0.1,0.2,0.1,0.3,0.1c0.2,0,0.4,0,0.5-0.1l1.6,2.8l-5.8,1.2L292.9,142.4z M293.8,142.4
	c0.1-0.1,0.2-0.2,0.3-0.3l7.5,1.9l-6.1,1.3L293.8,142.4z M292.6,141.4c0,0-0.1,0.1-0.1,0.1c0,0.2,0,0.3,0,0.4l-15.7,7
	c-0.1-0.1-0.2-0.2-0.3-0.3l5.5-13.9L292.6,141.4z M274.9,149.6l-0.1,0.3c0,0,0,0-0.1,0c-0.2,0-0.3,0-0.5,0l-0.1-0.2L274.9,149.6z
	 M275.3,150.3l0.4-0.2c0.1,0,0.1,0.1,0.2,0.1l-0.2,0.8l-0.4-0.2c0,0,0,0,0-0.1C275.4,150.6,275.4,150.5,275.3,150.3z M277,149.5
	l0.6-0.3l11.4-2.4l-5.3,6.5l-6.8-3.6C277,149.7,277,149.6,277,149.5C277,149.6,277,149.6,277,149.5z M302.4,144l13.2-2.8
	c0.1,0.2,0.2,0.4,0.4,0.4l-2,5.4L302.4,144z M316.2,141.7C316.2,141.7,316.2,141.7,316.2,141.7c0.1,0,0.2,0,0.3,0l1.9,6.4l-4.2-1.1
	L316.2,141.7z M316.7,141.6c0.1-0.1,0.2-0.1,0.3-0.2l15.2,10.2c0,0,0,0.1,0,0.1l-13.6-3.5L316.7,141.6z M339.2,134.3L339.2,134.3
	l-1-0.8l2.4-8.6c0,0,0,0,0,0l-0.8,9.2C339.5,134.1,339.3,134.2,339.2,134.3z M287,122.4c0.1,0,0.2,0,0.3,0L293,141
	c-0.1,0.1-0.2,0.1-0.3,0.2l-10.6-6.6L287,122.4C287,122.4,287,122.4,287,122.4z M258.8,120.4C258.8,120.4,258.8,120.5,258.8,120.4
	l-1.3-0.2l0.1-0.5L258.8,120.4z M223.6,114c0,0.1-0.1,0.1-0.1,0.2c0,0,0,0,0,0l-9.5-0.5c0-0.2-0.1-0.4-0.3-0.5l2.9-3.9L223.6,114z
	 M205.2,105.5l-20.5,6.5c-0.1-0.1-0.1-0.2-0.2-0.3l9.9-16.6c0.1,0,0.1,0.1,0.2,0.1c0.2,0.1,0.5,0,0.7-0.2L205.2,105.5z M194.2,95
	l-9.9,16.6c-0.1,0-0.1-0.1-0.2-0.1c-0.2,0-0.3,0-0.5,0l-4.9-10.5l15.2-6.3C194,94.8,194.1,94.9,194.2,95z M174.5,93.1
	c0.2,0,0.3,0,0.5,0l3.6,7.8l-16.2,6.7L174.2,93C174.3,93.1,174.4,93.1,174.5,93.1z M162,107.8l-2.4,1c0,0,0-0.1-0.1-0.1c0,0,0,0,0,0
	l13.6-14.5L162,107.8z M158.6,109.9c0.1,0,0.1,0.1,0.2,0.1c0,0,0.1,0,0.1,0l0.1,1.6l-5,6.1L158.6,109.9z M159.1,109.9
	c0.3-0.1,0.6-0.3,0.6-0.6c0,0,0,0,0,0l0.9,0.1l-1.5,1.8L159.1,109.9z M159.7,109.2c0-0.1,0-0.2,0-0.2l2.1-0.9l-1,1.2L159.7,109.2z
	 M142,105.7c0.1-0.1,0.1-0.2,0.2-0.3l14.7,3.4c-0.1,0.4,0.2,0.8,0.6,0.9c0.2,0.1,0.5,0,0.7-0.2c0,0,0,0,0.1,0.1
	c0.1,0.1,0.1,0.2,0.2,0.3l-4.6,7.9c-0.1,0-0.1-0.1-0.2-0.1c-0.2-0.1-0.5,0-0.7,0.2L142,105.7z M161,109.3l1.1-1.4l16.5-6.9l4.9,10.5
	c-0.2,0.1-0.3,0.3-0.4,0.5c0,0,0,0,0,0L161,109.3z M251.1,150.1l8.2-28.6c0.1,0,0.3,0,0.4,0l14.1,28l-22.3,1.2
	C251.6,150.4,251.4,150.2,251.1,150.1z M289.3,146.8l6.1-1.3l11.5,19.7c-0.1,0.1-0.1,0.1-0.2,0.2l-22.8-12L289.3,146.8z
	 M307.5,165.1c-0.2,0-0.4,0-0.5,0.1l-11.4-19.7l6.4-1.4l12.1,3.1L307.5,165.1C307.5,165.1,307.5,165.1,307.5,165.1z M333.3,151.3
	l2.7-6.8l-2.6,6.9C333.4,151.3,333.3,151.3,333.3,151.3z M340.4,135.3c0-0.1,0.1-0.1,0.1-0.2c0-0.2,0-0.3,0-0.4l4.5-2.2l5.7,10.7
	L340.4,135.3z M340.4,124.9l-2.4,8.6l-5-3.9l7-4.9C340.2,124.7,340.3,124.8,340.4,124.9z M318.4,118.5l-0.1-0.3
	c0.1,0,0.1-0.1,0.2-0.1l14.4,11.4L318.4,118.5z M317,117.7L317,117.7c0.1,0.1,0.2,0.2,0.2,0.3l-4.9,4.8l-1-4.3L317,117.7z
	 M317.3,118.1c0.1,0.1,0.2,0.1,0.3,0.2c0,0,0,0,0.1,0l-1.4,21.8c0,0,0,0-0.1,0l-3.9-17.1L317.3,118.1z M316.1,140.2
	c-0.1,0-0.3,0.1-0.4,0.2l-12.6-8.3l9-8.9L316.1,140.2z M315.7,140.6c0,0.1-0.1,0.1-0.1,0.2c0,0,0,0.1,0,0.1l-21.5,0.8
	c0-0.1-0.1-0.3-0.2-0.4l9.1-9L315.7,140.6z M293.8,141.1C293.8,141.1,293.8,141.1,293.8,141.1l6.1-11l3,2L293.8,141.1z M293.6,141
	c0,0-0.1,0-0.1-0.1c-0.1,0-0.2,0-0.3,0l-5.6-18.6c0.1,0,0.2-0.1,0.3-0.2l11.9,7.9L293.6,141z M282,134.6l-0.3-0.2l3.5-8.1L282,134.6
	z M281.9,134.8l-5.5,13.9c0,0,0,0,0,0c-0.1,0-0.3,0-0.4,0l-0.2-0.5l5.9-13.5L281.9,134.8z M275.7,147.9l-9.7-23l15.5,9.6
	L275.7,147.9z M275.5,148.1L260,121.4c0.1,0,0.1-0.1,0.1-0.1l5.5,3.4L275.5,148.1z M258.9,120.2l-1.2-0.7l1.9-8.7c0,0,0,0,0,0
	l-0.1,9.2C259.2,120,259,120.1,258.9,120.2z M257.4,119.6l-0.1,0.6l-14.1-2.6l6.1-2.8L257.4,119.6z M257.2,120.4l-0.1,0.5l-26.3,2.6
	c0,0,0-0.1,0-0.1l12-5.5L257.2,120.4z M230.8,123.2c-0.1-0.2-0.3-0.3-0.5-0.4c-0.1,0-0.2,0-0.3,0l-2-7.7l14.6,2.6L230.8,123.2z
	 M229.8,122.9c0,0-0.1,0-0.1,0l-4.9-7.9c0.1-0.1,0.2-0.2,0.3-0.4l2.7,0.5L229.8,122.9z M225.1,114.4
	C225.1,114.4,225.1,114.4,225.1,114.4l2.4-0.3l0.2,0.8L225.1,114.4z M225.1,114.2c-0.1-0.3-0.3-0.5-0.6-0.6c-0.1,0-0.1,0-0.2,0
	l-0.5-13.1c0,0,0,0,0,0l3.6,13.4L225.1,114.2z M216.5,109.2l-2.9,3.9c-0.1,0-0.2-0.1-0.2-0.1c-0.2-0.1-0.5,0-0.7,0.2l-7.2-7.6
	l3.8-1.2L216.5,109.2z M205.3,105.4l-10.1-10.6l13.9,9.4L205.3,105.4z M193.9,94.5l-15.2,6.3L175,93c0.2-0.1,0.3-0.3,0.4-0.5
	c0,0,0,0,0,0l18.4,1.8C193.9,94.4,193.9,94.5,193.9,94.5z M174.1,92.9l-14.6,15.6c-0.1-0.1-0.2-0.2-0.4-0.2c0,0-0.1,0-0.1,0
	l-0.5-9.6l15.5-5.9C174,92.8,174,92.8,174.1,92.9z M158.7,108.3c-0.1,0-0.2,0.1-0.4,0.2c-0.1-0.2-0.3-0.3-0.5-0.4
	c-0.4-0.1-0.8,0.1-0.9,0.5l-14.7-3.4c0-0.1,0-0.2,0-0.3l16.1-6.2L158.7,108.3z M141.2,105.9C141.2,105.9,141.2,105.9,141.2,105.9
	c0.3,0.1,0.5,0,0.7-0.1l11,12.2c0,0-0.1,0.1-0.1,0.1l-13.9-7L141.2,105.9z M154,117.9l5-6.1l0.4,5.4l-5.1,1
	C154.2,118.1,154.1,118,154,117.9z M159.2,111.5l1.7-2.1l22.2,2.8c0,0,0,0.1,0,0.1l-23.5,4.8L159.2,111.5z M184.7,112.5
	C184.7,112.5,184.7,112.4,184.7,112.5l27.7,1.4c0,0.2,0.1,0.4,0.2,0.5l-17.8,22.8c-0.1,0-0.1-0.1-0.2-0.1c-0.1,0-0.3,0-0.4,0
	l-10-24.1C184.5,112.9,184.6,112.7,184.7,112.5z M274,149.6l0.1,0.3c-0.2,0.1-0.3,0.3-0.3,0.5c0,0,0,0.1,0,0.1l-19.6,0.2L274,149.6z
	 M275.3,151l0.5,0.2l-3.4,14.7l2.2-14.6C274.8,151.4,275.1,151.3,275.3,151z M272.2,166.8l3.6-15.5l6.9,3.2l-10.3,12.4
	C272.4,166.9,272.3,166.8,272.2,166.8z M275.9,151.1l0.2-0.9c0.3,0,0.6-0.1,0.8-0.3l6.7,3.5l-0.7,0.9L275.9,151.1z M283.7,153.5
	l20.2,10.6l-20.9-9.7L283.7,153.5z M318.7,148.4l13.4,3.5c0,0.1,0,0.3,0.1,0.4l-10.6,5.8L318.7,148.4z M332.3,152.4
	c0.1,0.1,0.2,0.2,0.3,0.3l-6.2,17.2l-0.5,1.4c0,0,0,0,0,0c-0.1,0-0.2,0-0.3,0l-3.9-13.1L332.3,152.4z M332.8,152.8
	C332.8,152.8,332.8,152.8,332.8,152.8c0.1,0,0.1,0,0.1,0l-2.9,7.7L332.8,152.8z M333.6,151.5l6-15.8c0,0,0,0,0,0
	c0.2,0.1,0.4,0,0.6-0.1l13.3,16.5l-19.8-0.2C333.7,151.8,333.7,151.6,333.6,151.5z M340.3,135.4
	C340.3,135.4,340.3,135.4,340.3,135.4l10.6,8.1l4.6,8.6l-1.8,0L340.3,135.4z M359.3,158.7l-1.9-3.6l3.9-2.1l-1.6,5.6
	C359.6,158.6,359.4,158.7,359.3,158.7z M357.3,155l-1.4-2.7l5.6,0l-0.1,0.5L357.3,155z M361.7,152.3L361.7,152.3
	c0.1,0.1,0.1,0.1,0.1,0.2l-0.2,0.1L361.7,152.3z M362.7,151.4c-0.2,0-0.4,0-0.5,0.1l-0.2-0.2l6.9-24.7L362.7,151.4z M362,151.7
	C362,151.7,362,151.7,362,151.7l-0.1-0.1l0-0.1L362,151.7z M361.9,151.8c0,0.1-0.1,0.1-0.1,0.2c0,0,0,0.1,0,0.1l0,0L361.9,151.8
	L361.9,151.8z M361.5,152.1l-5.8,0l-4.4-8.3l10.3,7.9L361.5,152.1z M355.6,152.3l1.5,2.8l-0.7,0.4l-2.6-3.2L355.6,152.3z
	 M357.2,155.2l1.8,3.4l-2.5-3L357.2,155.2z M361.5,152.9l0.4-0.2c0.1,0.1,0.2,0.2,0.3,0.2l-2.2,5.3L361.5,152.9z M344.9,132.2
	l-4.5,2.2c-0.1-0.2-0.3-0.3-0.5-0.4c0,0,0,0-0.1,0l0.8-9.2c0.1,0,0.2,0,0.3,0L344.9,132.2z M311.3,118.3l-1.2-5.4
	c0.1,0,0.2-0.1,0.3-0.2l6.4,4.9L311.3,118.3z M259.3,110.7l-1.9,8.7l-8-4.7l9.4-4.3C259,110.6,259.1,110.7,259.3,110.7z
	 M223.2,100.3l-6.5,8.8l-7.1-4.8l13.4-4.2C223.1,100.2,223.1,100.3,223.2,100.3z M125.3,140.8c-0.1,0-0.1,0-0.2,0l-4.3-38.2
	c0.2,0,0.4-0.2,0.5-0.3l17.4,8.8L125.3,140.8C125.3,140.8,125.3,140.8,125.3,140.8z M363.2,151.7c-0.1-0.1-0.2-0.2-0.3-0.2l7.8-30.9
	c0.2,0,0.3,0,0.4-0.1l10.5,17.5L363.2,151.7z M361.8,151.3l0,0.1l-10.6-8l-5.9-11.1l1.3-0.6L361.8,151.3z M345.1,132.2l-3.8-7.1
	l5,6.5L345.1,132.2z M339.9,124c0,0.2,0,0.4,0.1,0.5l-7.1,4.9l-14.4-11.4c0,0,0-0.1,0.1-0.1L339.9,124z M317.1,117.5l-5.2-3.9
	l5.3,3.5c0,0.1-0.1,0.1-0.1,0.2C317.1,117.4,317.1,117.4,317.1,117.5z M309.7,112.9c0.1,0,0.2,0,0.3,0l1.2,5.4l-5.1,0.7l3.4-6.1
	C309.6,112.9,309.6,112.9,309.7,112.9z M311.2,118.5l1,4.4l-9.2,9l-3.1-2l6-10.8L311.2,118.5z M299.8,129.9l-11.9-7.9
	c0-0.1,0.1-0.1,0.1-0.2c0-0.1,0-0.1,0-0.2l17.8-2.4L299.8,129.9z M286.8,122.3l-5.2,12l-15.8-9.8l-1.5-3.6l22.1,0.7
	C286.5,122,286.6,122.2,286.8,122.3z M265.5,124.3l-5.3-3.3c0,0,0.1-0.1,0.1-0.1c0,0,0,0,0-0.1l3.8,0.1L265.5,124.3z M260.3,120.7
	c0-0.3-0.3-0.7-0.6-0.7c0,0-0.1,0-0.1,0l0.1-9.2c0.1,0,0.1,0,0.2,0l4.2,10L260.3,120.7z M258.8,110.2l-9.5,4.4l-4.6-2.7L258.8,110.2
	C258.8,110.2,258.8,110.2,258.8,110.2z M249.1,114.7l-6.2,2.9l-15-2.7l-0.2-0.9l16.8-2.1L249.1,114.7z M227.6,113.9l-3.6-13.4
	c0.1-0.1,0.3-0.1,0.4-0.2l19.8,11.6L227.6,113.9z M173.9,92.5l-15.4,5.9l-1.3-27.9c0.1,0,0.2-0.1,0.3-0.1l16.7,21.3
	c-0.1,0.1-0.2,0.2-0.2,0.4C173.8,92.3,173.8,92.4,173.9,92.5z M156.8,70.6c0,0,0.1,0,0.1,0l1.3,27.9l-16.1,6.2
	c-0.1-0.1-0.2-0.2-0.3-0.3L156.8,70.6C156.8,70.6,156.8,70.6,156.8,70.6z M120,102.3l-23.8,25.8c-0.1-0.1-0.2-0.1-0.3-0.1
	c-0.1,0-0.2,0-0.3,0L92,109.6c0.3-0.1,0.5-0.3,0.6-0.6c0-0.1,0-0.2,0-0.3l27.3-6.6C119.9,102.2,119.9,102.3,120,102.3z M96.3,128.3
	l23.8-25.8c0.1,0.1,0.2,0.1,0.3,0.1c0.1,0,0.1,0,0.2,0l4.3,38.2c-0.2,0.1-0.4,0.2-0.5,0.4l-27.9-12.1c0,0,0,0,0-0.1
	C96.5,128.8,96.5,128.5,96.3,128.3z M125.5,140.9l13.3-29.7l13.9,7c0,0,0,0.1,0,0.1c-0.1,0.2,0,0.4,0.1,0.6L125.6,141
	C125.6,140.9,125.5,140.9,125.5,140.9z M154.3,118.6c0-0.1,0-0.2,0-0.3l5.1-1l2.3,32.3l-7.9-30.5C154,119.1,154.2,118.9,154.3,118.6
	z M162,149.9c0,0-0.1,0-0.1,0l-2.3-32.6l23.6-4.8c0.1,0.3,0.3,0.5,0.6,0.5c0.1,0,0.3,0,0.4,0l10,24.1c-0.2,0.1-0.4,0.3-0.4,0.5
	c0,0.1,0,0.3,0,0.4l-31.2,12.3C162.4,150.1,162.3,150,162,149.9z M251.6,150.9l22.2-0.2c0,0.3,0.3,0.6,0.6,0.7l-2.3,15.4
	c-0.2,0-0.5,0.1-0.6,0.2l-19.9-15.8c0-0.1,0.1-0.2,0.1-0.2C251.6,151,251.6,150.9,251.6,150.9z M272.6,167l10.3-12.5l23.7,11.1
	c0,0,0,0,0,0.1c0,0,0,0.1,0,0.1l-33.8,1.6C272.8,167.3,272.7,167.1,272.6,167z M308.1,165.5l13.4-7.3l3.9,13
	c-0.2,0.1-0.3,0.2-0.4,0.4l-16.8-5.7c0,0,0,0,0,0C308.2,165.9,308.1,165.7,308.1,165.5z M333.8,152.1
	C333.8,152.1,333.8,152.1,333.8,152.1l19.9,0.1l2.6,3.3l-3.6,1.9L333.8,152.1z M356.4,155.7l2.6,3.2c-0.1,0.1-0.1,0.2-0.2,0.3
	l-5.9-1.6L356.4,155.7z M359.9,158.7l2.4-5.8c0,0,0,0,0.1,0c0.4,0.1,0.9-0.2,1-0.6c0,0,0-0.1,0-0.1l4,0l-7.2,6.5
	C360.1,158.8,360,158.8,359.9,158.7z M363.4,152.1c0-0.1,0-0.2-0.1-0.3l14.7-9.2l-10.5,9.5L363.4,152.1z M383.4,139.8l11.3-0.5
	l7,12.2c-0.1,0-0.1,0.1-0.2,0.2l-18.2-11.6c0-0.1,0.1-0.1,0.1-0.2C383.4,139.9,383.4,139.8,383.4,139.8z M421.1,138.3l4.3,0.1
	l-21.8,12.8L421.1,138.3z M421.3,138.1l1-0.8l7.3-1.6c0,0,0,0.1,0,0.1l-4,2.3L421.3,138.1z M429.7,136.1c0.1,0.1,0.3,0.3,0.5,0.3
	c0.4,0.1,0.7-0.1,0.9-0.4l5.8,2.4c0,0,0,0,0,0.1c0,0,0,0.1,0,0.1l-10.8-0.2L429.7,136.1z M379,142l2.7-1.7L368,152.1h-0.1L379,142z
	 M436.9,138.2l-5.8-2.4c0,0,0-0.1,0-0.1c0.1-0.4-0.2-0.9-0.6-1c0,0,0,0-0.1,0l0.3-2.9c0.2,0,0.4-0.1,0.5-0.2l5.8,6.3
	C437,138.1,436.9,138.2,436.9,138.2z M430,131.4l-5.9,3.5l-31.9-3.2l37.7-0.5C430,131.3,430,131.3,430,131.4z M389.7,132l-8.1,6
	l-10.5-17.5c0.1,0,0.1-0.1,0.2-0.2l18.3,11c0,0.1-0.1,0.1-0.1,0.2C389.6,131.7,389.6,131.9,389.7,132z M370,120.1l-23.4,11.4
	l-5.3-6.8c0.1-0.1,0.2-0.2,0.2-0.4c0-0.1,0-0.1,0-0.2L370,120.1C369.9,120.1,370,120.1,370,120.1z M318.6,117.7
	c0.1-0.4-0.2-0.8-0.6-0.9c-0.3-0.1-0.6,0.1-0.8,0.3l-6.6-4.5l0,0c0,0,0,0,0,0l28.4,11L318.6,117.7z M309.4,112.8l-3.5,6.2l-17.9,2.4
	c0,0,0,0,0,0l21.1-8.9C309.2,112.6,309.3,112.7,309.4,112.8z M286.4,121.5l-22.2-0.7l-4.3-10.1c0.1-0.1,0.2-0.2,0.3-0.3l26.2,11
	C286.5,121.4,286.4,121.4,286.4,121.5C286.4,121.5,286.4,121.5,286.4,121.5z M258.8,110l-14.3,1.8l-20-11.7l34.3,9.8
	C258.8,109.9,258.8,110,258.8,110z M223,99.5l-27.5-5.1c0-0.4-0.2-0.7-0.6-0.8l4.2-26.4c0.2,0,0.3,0,0.4-0.1l23.7,32.1
	C223.1,99.3,223,99.4,223,99.5z M198.5,66.9l-23.4,24.8c-0.1-0.1-0.2-0.1-0.3-0.1c-0.2-0.1-0.4,0-0.6,0.1l-16.7-21.3
	c0.1-0.1,0.2-0.2,0.2-0.4c0,0,0-0.1,0-0.1l40.6-3.3C198.4,66.7,198.4,66.8,198.5,66.9z M156.6,70.5l-15,33.9c0,0,0,0,0,0
	c-0.2-0.1-0.5,0-0.7,0.2l-18.5-19.8c0.1-0.1,0.2-0.2,0.2-0.3c0-0.1,0-0.3,0-0.4l33.7-13.7C156.4,70.3,156.5,70.4,156.6,70.5z
	 M121.7,84.9C121.7,84.9,121.7,84.9,121.7,84.9l-1.1,16.1c-0.4,0-0.7,0.2-0.8,0.6c0,0.1,0,0.2,0,0.3l-27.3,6.6c0-0.1,0-0.1-0.1-0.2
	l28.9-23.7C121.4,84.8,121.5,84.9,121.7,84.9z M68.2,134.1l26.7-5c0.1,0.3,0.3,0.5,0.6,0.6c0,0,0,0,0.1,0l-1.6,23.1
	c-0.2,0-0.4,0.1-0.6,0.3l-25.2-18.4c0-0.1,0.1-0.1,0.1-0.2C68.2,134.3,68.2,134.2,68.2,134.1z M94.1,152.7
	C94.1,152.7,94.1,152.7,94.1,152.7l1.6-23.1c0.3,0,0.5-0.2,0.7-0.4l27.9,12.1c0,0,0,0,0,0.1c0,0.1,0,0.3,0,0.4l-29.6,11.4
	C94.6,152.9,94.4,152.8,94.1,152.7z M125.8,141.1l27.2-22.1c0.1,0.1,0.2,0.2,0.4,0.2c0.1,0,0.2,0,0.3,0l8,30.7
	c-0.2,0.1-0.4,0.2-0.5,0.5l-35.3-8.8C125.9,141.5,125.8,141.3,125.8,141.1z M162.6,150.5l31.2-12.3c0.1,0.2,0.3,0.4,0.5,0.4
	c0,0,0,0,0,0l-2.4,34.8c-0.2,0-0.4,0.1-0.5,0.2l-28.9-22.5c0-0.1,0.1-0.1,0.1-0.2C162.7,150.8,162.7,150.6,162.6,150.5z
	 M192.2,173.4C192.2,173.4,192.2,173.4,192.2,173.4l2.3-34.8c0.1,0,0.1,0,0.2,0l13.2,30.1c-0.2,0.1-0.3,0.3-0.4,0.5
	c0,0.1,0,0.2,0,0.3l-14.7,4.4C192.7,173.6,192.5,173.4,192.2,173.4z M208.9,168.8l20.5-20.9c0.1,0.1,0.2,0.1,0.3,0.2
	c0.1,0,0.2,0,0.3,0l7.7,35.2c-0.2,0.1-0.3,0.2-0.4,0.3l-28.1-14c0,0,0-0.1,0-0.1C209.2,169.3,209.1,169,208.9,168.8z M238.5,183.6
	c-0.1-0.1-0.2-0.2-0.3-0.3l12.4-31.8c0,0,0,0,0,0c0.3,0.1,0.6,0,0.8-0.2l19.9,15.8c0,0.1-0.1,0.2-0.1,0.2c0,0.2,0,0.3,0,0.4
	L238.5,183.6z M272.8,167.6l33.8-1.6c0,0.3,0.2,0.5,0.5,0.6l-4.8,18.3c-0.3-0.1-0.6,0.1-0.8,0.3l-28.7-17.3c0,0,0.1-0.1,0.1-0.1
	C272.8,167.7,272.8,167.7,272.8,167.6z M302.7,185.3c-0.1-0.1-0.2-0.2-0.4-0.3l4.8-18.3c0.4,0.1,0.7-0.1,0.9-0.5l16.8,5.7
	c0,0,0,0,0,0c0,0.2,0,0.4,0.1,0.5L302.7,185.3z M352.8,157.6l6,1.7c0,0.1,0,0.2,0,0.3L327,171.5L352.8,157.6z M367.6,152.3h0.1
	l-2.6,2.2L367.6,152.3z M382.1,140.3c0.1,0.1,0.2,0.2,0.4,0.2c0.3,0.1,0.6-0.1,0.8-0.3l18.2,11.6c0,0.1-0.1,0.1-0.1,0.2
	c0,0,0,0.1,0,0.1l-33.1,0.1L382.1,140.3z M425.8,138.4l11,0.3c0,0,0,0.1,0,0.1l-33.6,12.9L425.8,138.4z"/>
<path class="st0" d="M401.3,134c0.2,0.1,0.5,0,0.7-0.2l5.8,6.3c-0.1,0.1-0.2,0.2-0.2,0.4c-0.1,0.4,0.2,0.9,0.6,1
	c0.4,0.1,0.9-0.2,1-0.6c0,0,0-0.1,0-0.1l38.8-0.5c0,0.3,0.3,0.6,0.6,0.7c0.3,0.1,0.6-0.1,0.8-0.3l18.3,11c0,0.1-0.1,0.1-0.1,0.2
	c-0.1,0.4,0.2,0.9,0.6,1c0.4,0.1,0.9-0.2,1-0.6c0-0.1,0-0.1,0-0.2l28.4-4.1c0.1,0.3,0.3,0.5,0.6,0.6c0.4,0.1,0.7-0.1,0.9-0.4
	l29.4,11.4c0,0,0,0,0,0c-0.1,0.4,0.2,0.9,0.6,1c0.4,0.1,0.9-0.2,1-0.6c0-0.1,0-0.3,0-0.4l21.1-8.9c0.1,0.2,0.3,0.4,0.5,0.4
	c0.4,0.1,0.7-0.1,0.9-0.4l26.2,11c0,0,0,0,0,0.1c-0.1,0.4,0.2,0.9,0.6,1c0.4,0.1,0.8-0.1,0.9-0.5l34.3,9.8c-0.1,0.4,0.2,0.8,0.6,0.9
	c0.2,0,0.4,0,0.6-0.1l23.7,32.1c-0.1,0.1-0.2,0.2-0.2,0.4c-0.1,0.4,0.2,0.9,0.6,1c0.4,0.1,0.9-0.2,1-0.6c0,0,0-0.1,0-0.1l40.6-3.3
	c0.1,0.3,0.3,0.5,0.6,0.6c0.4,0.1,0.9-0.2,1-0.6c0-0.1,0-0.3,0-0.4l33.7-13.7c0.1,0.2,0.3,0.3,0.5,0.4c0.4,0.1,0.9-0.2,1-0.6
	c0.1-0.2,0-0.4-0.1-0.6l28.9-23.7c0.1,0.1,0.2,0.2,0.4,0.2c0.4,0.1,0.9-0.2,1-0.6c0-0.1,0-0.1,0-0.2l36.8-6c0.1,0.3,0.3,0.5,0.6,0.6
	c0.4,0.1,0.9-0.2,1-0.6c0.1-0.4-0.2-0.9-0.6-1c-0.2,0-0.4,0-0.6,0.1l-13.1-17.8c0.1-0.1,0.2-0.2,0.3-0.4c0.1-0.4-0.2-0.9-0.6-1
	c-0.3-0.1-0.6,0-0.8,0.2l-25.2-18.4c0-0.1,0.1-0.1,0.1-0.2c0.1-0.4-0.2-0.9-0.6-1c-0.4-0.1-0.9,0.2-1,0.6c0,0.1,0,0.3,0,0.4
	l-29.6,11.4c-0.1-0.2-0.3-0.4-0.5-0.4c-0.4-0.1-0.8,0.1-0.9,0.5l-35.3-8.8c0-0.4-0.2-0.8-0.6-0.9c-0.3-0.1-0.6,0-0.7,0.2L647.7,98
	c0-0.1,0.1-0.1,0.1-0.2c0.1-0.4-0.2-0.9-0.6-1c-0.4-0.1-0.9,0.2-1,0.6c0,0.1,0,0.2,0,0.3l-14.7,4.4c-0.1-0.2-0.3-0.4-0.6-0.5
	c-0.3-0.1-0.7,0.1-0.9,0.4l-28.1-14c0,0,0-0.1,0-0.1c0.1-0.4-0.2-0.9-0.6-1c-0.4-0.1-0.9,0.2-1,0.6c0,0.2,0,0.3,0,0.4l-32.7,15.8
	c-0.1-0.2-0.3-0.3-0.5-0.4c-0.3-0.1-0.6,0.1-0.8,0.3l-28.7-17.3c0,0,0.1-0.1,0.1-0.1c0.1-0.4-0.2-0.9-0.6-1c-0.4-0.1-0.9,0.2-1,0.6
	c0,0.2,0,0.4,0.1,0.5L514,99.2c-0.1-0.2-0.3-0.3-0.5-0.3c-0.4-0.1-0.9,0.2-1,0.6c0,0.1,0,0.2,0,0.4l-32.4,12.1
	c-0.1-0.2-0.3-0.4-0.5-0.4c-0.4-0.1-0.9,0.2-1,0.6c-0.1,0.2,0,0.5,0.1,0.6l-7.8,6.7l-33.3,0.1c0-0.3-0.3-0.6-0.6-0.7
	c-0.4-0.1-0.9,0.2-1,0.6c0,0.1,0,0.3,0,0.4l-34,13c-0.1-0.2-0.3-0.4-0.5-0.4c-0.4-0.1-0.9,0.2-1,0.6
	C400.5,133.4,400.8,133.9,401.3,134z M784.8,156.7l-36.8,6c0-0.1-0.1-0.2-0.1-0.3l23.2-24.2c0.1,0.1,0.2,0.1,0.3,0.1
	c0.2,0,0.4,0,0.6-0.1l13.1,17.8c-0.1,0.1-0.2,0.2-0.3,0.4C784.8,156.6,784.8,156.6,784.8,156.7z M512.7,100.2
	c0.1,0.1,0.2,0.2,0.3,0.2l-7,18.6c-0.3,0-0.5,0.2-0.6,0.5l-18.8-5.3L512.7,100.2z M601,88.5c0.1,0,0.2,0,0.3,0l7.7,35.2
	c-0.2,0.1-0.4,0.3-0.5,0.5L589,121c0-0.3-0.1-0.6-0.4-0.8L601,88.5C601,88.5,601,88.5,601,88.5z M630.5,103.2c0.1,0,0.3,0,0.4,0
	l13.2,30.1c-0.2,0.1-0.3,0.2-0.3,0.4l-33.9-9.1c0-0.2,0-0.4-0.2-0.6l20.5-20.9C630.3,103.1,630.4,103.2,630.5,103.2z M771,138.1
	l-23.2,24.2c-0.1-0.1-0.2-0.1-0.3-0.1c-0.1,0-0.2,0-0.3,0l-3.6-18.5c0.3-0.1,0.5-0.3,0.6-0.6c0-0.1,0-0.2,0-0.2l26.7-5
	C770.9,137.9,770.9,138,771,138.1z M716.7,187l-18.5-19.8c0.1-0.1,0.2-0.2,0.2-0.3l19.2,3c0,0.4,0.2,0.8,0.6,0.8c0,0,0,0,0.1,0
	l-1.2,16.1C717,186.9,716.8,186.9,716.7,187z M640.1,204.6l4.2-26.4c0.4,0,0.7-0.2,0.8-0.6c0,0,0,0,0,0l18.4,1.8
	c0,0.2,0.1,0.4,0.2,0.5l-23.4,24.8C640.3,204.7,640.2,204.7,640.1,204.6z M616.1,172.1c0-0.1,0-0.1,0-0.2l13.6-4.3l14,9.5
	c0,0,0,0.1-0.1,0.1L616.1,172.1z M469,151.5c-0.1-0.1-0.2-0.2-0.4-0.3l8.6-30.6l15.2,19.5L469,151.5z M448.2,139.5
	c-0.1,0.1-0.2,0.2-0.3,0.4l-26.6-6.1c0,0,0,0,0,0l23-1L448.2,139.5z M421.3,133.5c0-0.1-0.1-0.2-0.1-0.3l15.2-13
	c0.1,0.1,0.2,0.2,0.4,0.2c0.2,0,0.4,0,0.5-0.1l7,12.1L421.3,133.5z M421,133.1c-0.1-0.1-0.2-0.2-0.4-0.2c-0.4-0.1-0.9,0.2-1,0.6
	c0,0,0,0.1,0,0.1l-1.5,0l16.9-12.4L421,133.1z M419.7,133.7C419.7,133.7,419.7,133.7,419.7,133.7l-2.5,0.6l0.9-0.7L419.7,133.7z
	 M455.9,132.7c0.1,0.1,0.2,0.1,0.3,0.2c0.1,0,0.2,0,0.3,0l-6.3,5.7L455.9,132.7z M457.2,132.2C457.2,132.2,457.2,132.2,457.2,132.2
	c0.1-0.2,0-0.4-0.1-0.6l2.2-1.4L457.2,132.2z M455.8,132.6l-6.7,6.9c-0.1-0.1-0.2-0.1-0.3-0.2c-0.2,0-0.4,0-0.5,0.1l-3.9-6.7
	l11.2-0.5C455.6,132.3,455.7,132.5,455.8,132.6z M409.5,136.1l7-1.5l-2.8,2L409.5,136.1C409.4,136.1,409.5,136.1,409.5,136.1z
	 M409.4,136.4C409.4,136.4,409.4,136.4,409.4,136.4l4,0.4l-4.6,3.4c-0.1-0.1-0.2-0.2-0.4-0.2c0,0,0,0-0.1,0l0.3-2.9
	C409,137,409.4,136.7,409.4,136.4z M413.7,136.8l1,0.1l-5.3,3.1L413.7,136.8z M414,136.6l2.9-2.2l2.8-0.6c0,0,0,0.1,0,0.1l-4.7,2.7
	L414,136.6z M419.8,134.1c0.1,0.2,0.3,0.3,0.5,0.3c0.4,0.1,0.8-0.1,0.9-0.5l26,6l-32-3.2L419.8,134.1z M456.8,132.9l0.4,0.7
	l-7.1,5.2L456.8,132.9z M456.9,132.8l3.4-3.1l14.3-9l-17.3,12.8L456.9,132.8z M531,106.4c0.1,0.1,0.2,0.2,0.3,0.3l-6.5,17.9
	l-4.3-1.1l-2.9-9.8L531,106.4z M608.3,124.4c0,0.2,0,0.4,0.1,0.5l-10.2,9.1l-9.6-12.5c0.1-0.1,0.2-0.2,0.2-0.4L608.3,124.4z
	 M643.7,133.8c0,0.1,0,0.2,0,0.3L619,144l-9.4-18.9c0.1-0.1,0.2-0.2,0.3-0.4L643.7,133.8z M717.7,169.7
	C717.7,169.7,717.7,169.7,717.7,169.7l-19.3-3c0-0.3-0.1-0.6-0.4-0.7l2.3-5.1L717.7,169.7z M615.5,171.3c-0.1,0-0.1,0-0.2,0
	l-0.5-13.1c0.2,0,0.4-0.1,0.5-0.3l6.9,4.7l-6.5,8.8C615.6,171.3,615.6,171.3,615.5,171.3z M598.2,134.2l-15.7,14.1l5.7-26.5
	c0.2,0,0.3,0,0.5-0.1L598.2,134.2z M625.1,157.5l-6-3.5l3.3-2.6l2.9,5.9C625.3,157.4,625.2,157.4,625.1,157.5z M625.1,157.6
	c0,0.1-0.1,0.1-0.1,0.2c0,0,0,0,0,0l-9.5-0.5c0-0.1,0-0.2-0.1-0.4l3.6-2.9L625.1,157.6z M615.3,156.8c-0.1-0.1-0.2-0.2-0.4-0.2
	c-0.1,0-0.2,0-0.2,0l-0.9-5.6l5.1,3L615.3,156.8z M609.7,148l3.1-1.2l0.7,4l-3.8-2.2c0-0.1,0.1-0.1,0.1-0.2
	C609.8,148.2,609.7,148.1,609.7,148z M609.6,147.8c-0.1-0.2-0.3-0.3-0.5-0.4c0,0-0.1,0-0.1,0l0.2-22l3.6,21.1L609.6,147.8z
	 M609.6,148.6l3.9,2.3l1,5.7c-0.1,0-0.1,0-0.2,0.1l-4.9-7.9C609.5,148.8,609.6,148.7,609.6,148.6z M626.6,158.1l27.7,1.4
	c0,0,0,0.1,0,0.1l-20.6,6.5l-7.3-7.6C626.5,158.4,626.6,158.3,626.6,158.1C626.6,158.1,626.6,158.1,626.6,158.1z M626,157.2
	c-0.2,0-0.3,0-0.4,0l-2.9-5.9l21.4-16.8c0,0,0,0,0,0l-17.8,22.8C626.1,157.3,626.1,157.2,626,157.2z M643.8,134.4l-21.3,16.8
	l-3.4-6.9L643.8,134.4C643.8,134.4,643.8,134.4,643.8,134.4z M622.4,151.3l-3.4,2.7l-5.3-3.1l-0.7-4.2l5.9-2.4L622.4,151.3z
	 M613,146.4l-3.6-21.2c0,0,0,0,0,0l9.4,18.9L613,146.4z M609,125.3c0,0,0.1,0,0.1,0l-0.2,22.1c-0.1,0-0.2,0-0.3,0.1l-10.1-13.3
	l10.2-9.1C608.7,125.2,608.8,125.2,609,125.3z M608.4,147.6c-0.1,0.1-0.2,0.2-0.2,0.4c0,0.1,0,0.1,0,0.2l-26.2,2.6l0.5-2.1
	l15.9-14.3L608.4,147.6z M582.2,148.5l-2.1,1.9c-0.1-0.1-0.1-0.1-0.2-0.1l7.7-26.7L582.2,148.5z M580.3,151.1
	C580.3,151.1,580.3,151.1,580.3,151.1l1.3-0.2l-0.1,0.4L580.3,151.1z M580.3,150.9c0-0.1-0.1-0.2-0.1-0.3l1.9-1.7l-0.4,1.9
	L580.3,150.9z M578.1,148.3l-14.5-24.9l0.5-1.1l0.9,0L578.1,148.3z M520.8,153.1l-7-16l8.3-5.7c0.1,0.1,0.2,0.2,0.4,0.3
	c0,0,0,0,0.1,0l-1.3,21.8L520.8,153.1z M500,137.3c0-0.1,0.1-0.1,0.1-0.2c0-0.1,0-0.2,0-0.3l1.3-0.3l-0.4,1.6L500,137.3z
	 M506.3,120.5l5.7,13l-10.4,2.7l4.4-15.7C506.1,120.6,506.2,120.6,506.3,120.5z M521.9,131.2l-8.2,5.7l-1.4-3.3l9.6-2.5
	C521.9,131.2,521.9,131.2,521.9,131.2z M521.9,130.5c0,0.1-0.1,0.1-0.1,0.2c0,0.1,0,0.2,0,0.3l-9.7,2.5l-5.7-13
	c0.1,0,0.2-0.1,0.2-0.2L521.9,130.5z M501.4,136.3l-1.4,0.4c-0.1-0.2-0.2-0.3-0.4-0.4l0.5-1.4l5.4-13.7L501.4,136.3z M501.5,136.4
	l10.5-2.7l1.5,3.4l-7.3,5l-5.2-3.9L501.5,136.4z M513.6,137.2l6.9,15.7l-14.1-10.7L513.6,137.2z M537,127.9l7.9,2c0,0,0,0,0,0.1
	l-21.3,0.8L537,127.9z M562.1,122.6L562.1,122.6l-10.1,4.5l9.2-4.3L562.1,122.6z M563.3,123c0.1-0.1,0.3-0.3,0.3-0.5
	c0-0.1,0-0.1,0-0.1l0.2,0l-0.4,0.9L563.3,123z M563.9,122.2l-0.3,0c0-0.1-0.1-0.2-0.1-0.3l0.3-0.2c0.1,0.1,0.1,0.1,0.2,0.2
	L563.9,122.2z M563.7,121.6C563.7,121.6,563.8,121.6,563.7,121.6l-0.3,0.3c0,0-0.1-0.1-0.1-0.1L563.7,121.6z M562,122.4L562,122.4
	L562,122.4C562,122.4,562,122.4,562,122.4z M560.6,122.9l-14.2,6.7c0-0.1-0.1-0.1-0.1-0.1l3.5-4.3L560.6,122.9z M546.1,129.4
	c-0.1-0.1-0.2-0.1-0.3-0.1c-0.2,0-0.4,0-0.5,0.1l-1.6-2.8l5.8-1.2L546.1,129.4z M545.2,129.4c-0.1,0.1-0.2,0.2-0.3,0.3l-7.5-1.9
	l6.1-1.3L545.2,129.4z M546.4,130.4c0,0,0.1-0.1,0.1-0.1c0-0.2,0-0.3,0-0.4l15.7-7c0.1,0.1,0.2,0.2,0.3,0.3l-5.5,13.9L546.4,130.4z
	 M564.1,122.2l0.1-0.2c0,0,0,0,0.1,0c0.2,0,0.3,0,0.5,0l0.1,0.2L564.1,122.2z M563.7,121.5l-0.4,0.2c-0.1,0-0.1-0.1-0.2-0.1l0.2-0.8
	l0.4,0.2c0,0,0,0,0,0.1C563.6,121.2,563.6,121.3,563.7,121.5z M562,122.2l-0.6,0.3L550,125l5.3-6.5l6.8,3.6
	C562.1,122.1,562,122.1,562,122.2C562,122.2,562,122.2,562,122.2z M536.6,127.8l-13.2,2.8c-0.1-0.2-0.2-0.4-0.4-0.4l2-5.4
	L536.6,127.8z M522.8,130.1C522.8,130.1,522.8,130.1,522.8,130.1c-0.1,0-0.2,0-0.3,0l-1.9-6.4l4.2,1.1L522.8,130.1z M522.3,130.1
	c-0.1,0.1-0.2,0.1-0.3,0.2l-15.2-10.2c0,0,0-0.1,0-0.1l13.6,3.5L522.3,130.1z M499.8,137.5L499.8,137.5l1,0.8l-2.4,8.6c0,0,0,0,0,0
	l0.8-9.2C499.5,137.7,499.7,137.6,499.8,137.5z M552,149.3c-0.1,0-0.2,0-0.3,0l-5.6-18.6c0.1-0.1,0.2-0.1,0.3-0.2l10.6,6.6
	L552,149.3C552,149.3,552,149.3,552,149.3z M580.2,151.3C580.3,151.3,580.3,151.3,580.2,151.3l1.3,0.2l-0.1,0.5L580.2,151.3z
	 M615.4,157.8c0-0.1,0.1-0.1,0.1-0.2c0,0,0,0,0,0l9.5,0.5c0,0.2,0.1,0.4,0.3,0.5l-2.9,3.9L615.4,157.8z M633.8,166.3l20.5-6.5
	c0.1,0.1,0.1,0.2,0.2,0.3l-9.9,16.6c-0.1,0-0.1-0.1-0.2-0.1c-0.2-0.1-0.5,0-0.7,0.2L633.8,166.3z M644.8,176.8l9.9-16.6
	c0.1,0,0.1,0.1,0.2,0.1c0.2,0,0.3,0,0.5,0l4.9,10.5l-15.2,6.3C645,176.9,644.9,176.8,644.8,176.8z M664.6,178.6c-0.2,0-0.3,0-0.4,0
	l-3.6-7.8l16.2-6.7l-11.8,14.6C664.7,178.7,664.7,178.7,664.6,178.6z M677,164l2.4-1c0,0,0,0.1,0.1,0.1c0,0,0,0,0,0l-13.6,14.5
	L677,164z M680.5,161.9c-0.1,0-0.1-0.1-0.2-0.1c0,0-0.1,0-0.1,0l-0.1-1.6l5-6.1L680.5,161.9z M679.9,161.8c-0.3,0.1-0.6,0.3-0.6,0.6
	c0,0,0,0,0,0l-0.9-0.1l1.5-1.8L679.9,161.8z M679.3,162.6c0,0.1,0,0.2,0,0.2l-2.1,0.9l1-1.2L679.3,162.6z M697,166.1
	c-0.1,0.1-0.1,0.2-0.2,0.3l-14.7-3.4c0.1-0.4-0.2-0.8-0.6-0.9c-0.2-0.1-0.5,0-0.7,0.2c0,0,0-0.1-0.1-0.1c-0.1-0.1-0.1-0.2-0.2-0.3
	l4.6-7.9c0.1,0,0.1,0.1,0.2,0.1c0.2,0.1,0.5,0,0.7-0.2L697,166.1z M678,162.4l-1.1,1.4l-16.5,6.9l-4.9-10.5c0.2-0.1,0.3-0.3,0.4-0.5
	c0,0,0,0,0,0L678,162.4z M587.9,121.7l-8.2,28.6c-0.1,0-0.3,0-0.4,0l-14.1-28l22.3-1.2C587.4,121.3,587.6,121.6,587.9,121.7z
	 M549.7,125l-6.1,1.3l-11.5-19.7c0.1-0.1,0.1-0.1,0.2-0.2l22.8,12L549.7,125z M531.5,106.7c0.2,0,0.4,0,0.5-0.1l11.4,19.7l-6.4,1.4
	l-12.1-3.1L531.5,106.7C531.5,106.7,531.5,106.7,531.5,106.7z M505.7,120.5l-2.7,6.8l2.6-6.9C505.6,120.5,505.7,120.5,505.7,120.5z
	 M498.6,136.5c0,0.1-0.1,0.1-0.1,0.2c0,0.2,0,0.3,0,0.4l-4.5,2.2l-5.7-10.7L498.6,136.5z M498.6,146.9l2.4-8.6l5,3.9l-7,4.9
	C498.8,147,498.7,147,498.6,146.9z M520.6,153.3l0.1,0.3c-0.1,0-0.1,0.1-0.2,0.1l-14.4-11.4L520.6,153.3z M522,154.1L522,154.1
	c-0.1-0.1-0.2-0.2-0.2-0.3l4.9-4.8l1,4.3L522,154.1z M521.7,153.6c-0.1-0.1-0.2-0.1-0.3-0.2c0,0,0,0-0.1,0l1.4-21.8c0,0,0,0,0.1,0
	l3.9,17.1L521.7,153.6z M522.9,131.6c0.1,0,0.3-0.1,0.4-0.2l12.6,8.3l-9,8.9L522.9,131.6z M523.3,131.2c0-0.1,0.1-0.1,0.1-0.2
	c0,0,0-0.1,0-0.1l21.5-0.8c0,0.1,0.1,0.3,0.2,0.4l-9.1,9L523.3,131.2z M545.2,130.7C545.2,130.7,545.2,130.7,545.2,130.7l-6.1,11
	l-3-2L545.2,130.7z M545.4,130.8c0,0,0.1,0,0.1,0.1c0.1,0,0.2,0,0.3,0l5.6,18.6c-0.1,0-0.2,0.1-0.3,0.2l-11.9-7.9L545.4,130.8z
	 M557,137.2l0.3,0.2l-3.5,8.1L557,137.2z M557.1,137l5.5-13.9c0,0,0,0,0,0c0.1,0,0.3,0,0.4,0l0.2,0.5l-5.9,13.5L557.1,137z
	 M563.4,123.9l9.7,23l-15.5-9.6L563.4,123.9z M563.5,123.7l15.5,26.7c-0.1,0-0.1,0.1-0.1,0.1l-5.5-3.4L563.5,123.7z M580.1,151.5
	l1.2,0.7l-1.9,8.7c0,0,0,0,0,0l0.1-9.2C579.8,151.8,580,151.7,580.1,151.5z M581.6,152.1l0.1-0.6l14.1,2.6l-6.1,2.8L581.6,152.1z
	 M581.8,151.3l0.1-0.5l26.3-2.6c0,0,0,0.1,0,0.1l-12,5.5L581.8,151.3z M608.3,148.6c0.1,0.2,0.3,0.3,0.5,0.4c0.1,0,0.2,0,0.3,0
	l2,7.7l-14.6-2.6L608.3,148.6z M609.2,148.9c0,0,0.1,0,0.1,0l4.9,7.9c-0.1,0.1-0.2,0.2-0.3,0.4l-2.7-0.5L609.2,148.9z M613.9,157.4
	C613.9,157.4,613.9,157.4,613.9,157.4l-2.4,0.3l-0.2-0.8L613.9,157.4z M613.9,157.6c0.1,0.3,0.3,0.5,0.6,0.6c0.1,0,0.1,0,0.2,0
	l0.5,13.1c0,0,0,0,0,0l-3.6-13.4L613.9,157.6z M622.5,162.5l2.9-3.9c0.1,0,0.2,0.1,0.2,0.1c0.2,0.1,0.5,0,0.7-0.2l7.2,7.6l-3.8,1.2
	L622.5,162.5z M633.7,166.4l10.1,10.6l-13.9-9.4L633.7,166.4z M645.1,177.2l15.2-6.3l3.6,7.8c-0.2,0.1-0.3,0.3-0.4,0.5c0,0,0,0,0,0
	l-18.4-1.8C645.2,177.4,645.2,177.3,645.1,177.2z M665,178.9l14.6-15.6c0.1,0.1,0.2,0.2,0.4,0.2c0,0,0.1,0,0.1,0l0.5,9.6l-15.5,5.9
	C665.1,179,665,178.9,665,178.9z M680.3,163.5c0.1,0,0.2-0.1,0.4-0.2c0.1,0.2,0.3,0.3,0.5,0.4c0.4,0.1,0.8-0.2,0.9-0.5l14.7,3.4
	c0,0.1,0,0.2,0,0.3l-16.1,6.2L680.3,163.5z M697.9,165.9C697.8,165.9,697.8,165.9,697.9,165.9c-0.3-0.1-0.5,0-0.7,0.1l-11-12.2
	c0,0,0.1-0.1,0.1-0.1l13.9,7L697.9,165.9z M685,153.9l-5,6.1l-0.4-5.4l5.1-1C684.8,153.7,684.9,153.8,685,153.9z M679.8,160.2
	l-1.7,2.1l-22.2-2.8c0,0,0-0.1,0-0.1l23.5-4.8L679.8,160.2z M654.3,159.3C654.3,159.3,654.3,159.3,654.3,159.3l-27.7-1.4
	c0-0.2-0.1-0.4-0.2-0.5l17.8-22.8c0.1,0,0.2,0.1,0.2,0.1c0.1,0,0.3,0,0.4,0l10,24.1C654.5,158.9,654.4,159.1,654.3,159.3z
	 M565,122.1l-0.1-0.3c0.2-0.1,0.3-0.3,0.3-0.5c0,0,0-0.1,0-0.1l19.6-0.2L565,122.1z M563.8,120.8l-0.5-0.2l3.4-14.7l-2.2,14.6
	C564.2,120.4,563.9,120.5,563.8,120.8z M566.8,105l-3.6,15.5l-6.9-3.2l10.3-12.4C566.6,104.9,566.7,104.9,566.8,105z M563.1,120.7
	l-0.2,0.9c-0.3,0-0.6,0.1-0.8,0.3l-6.7-3.5l0.7-0.9L563.1,120.7z M555.3,118.3l-20.2-10.6l20.9,9.7L555.3,118.3z M520.3,123.4
	l-13.4-3.5c0-0.1,0-0.3-0.1-0.4l10.6-5.8L520.3,123.4z M506.7,119.3c-0.1-0.1-0.2-0.2-0.3-0.3l6.2-17.2l0.5-1.4c0,0,0,0,0,0
	c0.1,0,0.2,0,0.3,0l3.9,13.1L506.7,119.3z M506.3,119C506.3,119,506.3,119,506.3,119c-0.1,0-0.1,0-0.1,0l2.9-7.7L506.3,119z
	 M505.4,120.3l-6,15.8c0,0,0,0,0,0c-0.2-0.1-0.4,0-0.6,0.1l-13.3-16.5l19.8,0.2C505.3,120,505.3,120.2,505.4,120.3z M498.7,136.3
	C498.7,136.3,498.7,136.3,498.7,136.3l-10.6-8.1l-4.6-8.6l1.8,0L498.7,136.3z M479.7,113.1l1.9,3.6l-3.9,2.1l1.6-5.6
	C479.5,113.1,479.6,113.1,479.7,113.1z M481.7,116.8l1.4,2.7l-5.6,0l0.1-0.5L481.7,116.8z M477.3,119.5L477.3,119.5
	c-0.1-0.1-0.1-0.1-0.1-0.2l0.2-0.1L477.3,119.5z M476.3,120.3c0.2,0,0.4,0,0.5-0.1l0.2,0.2l-6.9,24.7L476.3,120.3z M477,120.1
	C477,120.1,477,120.1,477,120.1l0.1,0.1l0,0.1L477,120.1z M477.1,119.9c0-0.1,0.1-0.1,0.1-0.2c0,0,0-0.1,0-0.1h0L477.1,119.9
	L477.1,119.9z M477.5,119.6l5.8,0l4.4,8.3l-10.3-7.9L477.5,119.6z M483.4,119.5l-1.5-2.8l0.7-0.4l2.6,3.2L483.4,119.5z M481.8,116.5
	l-1.8-3.4l2.5,3L481.8,116.5z M477.5,118.9l-0.4,0.2c-0.1-0.1-0.2-0.2-0.3-0.2l2.2-5.3L477.5,118.9z M494.1,139.5l4.5-2.2
	c0.1,0.2,0.3,0.3,0.5,0.4c0,0,0,0,0.1,0l-0.8,9.2c-0.1,0-0.2,0-0.3,0.1L494.1,139.5z M527.7,153.5l1.2,5.4c-0.1,0-0.2,0.1-0.3,0.2
	l-6.4-4.9L527.7,153.5z M579.7,161l1.9-8.7l8,4.7l-9.4,4.3C580,161.2,579.9,161.1,579.7,161z M615.8,171.4l6.5-8.8l7.1,4.8
	l-13.4,4.2C616,171.6,615.9,171.5,615.8,171.4z M713.8,131c0.1,0,0.1,0,0.2,0l4.3,38.2c-0.2,0-0.4,0.2-0.5,0.3l-17.4-8.8L713.8,131
	C713.7,131,713.8,131,713.8,131z M475.9,120.1c0.1,0.1,0.2,0.2,0.3,0.2l-7.8,30.9c-0.2,0-0.3,0-0.4,0.1l-10.5-17.5L475.9,120.1z
	 M477.3,120.4l0-0.1l10.6,8l5.9,11.1l-1.3,0.6L477.3,120.4z M493.9,139.6l3.8,7.1l-5-6.5L493.9,139.6z M499.1,147.8
	c0-0.2,0-0.4-0.1-0.5l7.1-4.9l14.4,11.4c0,0,0,0.1-0.1,0.1L499.1,147.8z M522,154.3l5.2,3.9l-5.3-3.5c0-0.1,0.1-0.1,0.1-0.2
	C522,154.4,522,154.3,522,154.3z M529.4,158.8c-0.1,0-0.2,0-0.3,0l-1.2-5.4l5.1-0.7l-3.4,6.1C529.4,158.9,529.4,158.9,529.4,158.8z
	 M527.8,153.3l-1-4.4l9.2-9l3.1,2l-6,10.8L527.8,153.3z M539.2,141.9l11.9,7.9c0,0.1-0.1,0.1-0.1,0.2c0,0.1,0,0.1,0,0.2l-17.8,2.4
	L539.2,141.9z M552.2,149.4l5.2-12l15.8,9.8l1.5,3.6l-22.1-0.7C552.6,149.8,552.4,149.6,552.2,149.4z M573.5,147.4l5.3,3.3
	c0,0-0.1,0.1-0.1,0.1c0,0,0,0,0,0.1l-3.8-0.1L573.5,147.4z M578.7,151.1c0,0.3,0.3,0.7,0.6,0.7c0,0,0.1,0,0.1,0l-0.1,9.2
	c-0.1,0-0.1,0-0.2,0l-4.2-10L578.7,151.1z M580.2,161.5l9.5-4.4l4.6,2.7L580.2,161.5C580.2,161.6,580.2,161.5,580.2,161.5z
	 M589.9,157l6.2-2.9l15,2.7l0.2,0.9l-16.8,2.1L589.9,157z M611.5,157.9l3.6,13.4c-0.1,0.1-0.3,0.1-0.4,0.2L594.9,160L611.5,157.9z
	 M665.2,179.2l15.4-5.9l1.3,27.9c-0.1,0-0.2,0.1-0.3,0.1L664.9,180c0.1-0.1,0.2-0.2,0.2-0.4C665.2,179.5,665.2,179.4,665.2,179.2z
	 M682.2,201.2c0,0-0.1,0-0.1,0l-1.3-27.9l16.1-6.2c0.1,0.1,0.2,0.2,0.3,0.3L682.2,201.2C682.2,201.2,682.2,201.2,682.2,201.2z
	 M719,169.4l23.8-25.8c0.1,0.1,0.2,0.1,0.3,0.1c0.1,0,0.2,0,0.3,0l3.6,18.5c-0.3,0.1-0.5,0.3-0.6,0.6c0,0.1,0,0.2,0,0.3l-27.3,6.6
	C719.2,169.6,719.1,169.5,719,169.4z M742.7,143.4l-23.8,25.8c-0.1-0.1-0.2-0.1-0.3-0.1c-0.1,0-0.1,0-0.2,0l-4.3-38.2
	c0.2-0.1,0.4-0.2,0.5-0.4l27.9,12.1c0,0,0,0,0,0.1C742.5,143,742.6,143.3,742.7,143.4z M713.5,130.9l-13.3,29.7l-13.9-7
	c0,0,0-0.1,0-0.1c0.1-0.2,0-0.4-0.1-0.6l27.2-22.1C713.4,130.8,713.5,130.9,713.5,130.9z M684.8,153.1c0,0.1,0,0.2,0,0.3l-5.1,1
	l-2.3-32.3l7.9,30.5C685,152.7,684.8,152.9,684.8,153.1z M677,121.8c0,0,0.1,0,0.1,0l2.3,32.6l-23.6,4.8c-0.1-0.3-0.3-0.5-0.6-0.5
	c-0.1,0-0.3,0-0.4,0l-10-24.1c0.2-0.1,0.4-0.3,0.4-0.5c0-0.1,0-0.3,0-0.4l31.2-12.3C676.6,121.6,676.8,121.8,677,121.8z
	 M587.4,120.9l-22.2,0.2c0-0.3-0.3-0.6-0.6-0.7L567,105c0.2,0,0.5-0.1,0.6-0.2l19.9,15.8c0,0.1-0.1,0.2-0.1,0.2
	C587.4,120.8,587.4,120.8,587.4,120.9z M566.4,104.7l-10.3,12.5l-23.7-11.1c0,0,0,0,0-0.1c0,0,0-0.1,0-0.1l33.8-1.7
	C566.2,104.5,566.3,104.6,566.4,104.7z M530.9,106.2l-13.4,7.3l-3.9-13c0.2-0.1,0.3-0.2,0.4-0.4l16.8,5.7c0,0,0,0,0,0
	C530.9,105.9,530.9,106.1,530.9,106.2z M505.3,119.6C505.3,119.7,505.3,119.7,505.3,119.6l-19.9-0.1l-2.6-3.3l3.6-1.9L505.3,119.6z
	 M482.6,116.1l-2.6-3.2c0.1-0.1,0.1-0.2,0.2-0.3l5.9,1.6L482.6,116.1z M479.1,113l-2.4,5.8c0,0,0,0-0.1,0c-0.4-0.1-0.9,0.2-1,0.6
	c0,0,0,0.1,0,0.1l-4,0l7.2-6.5C479,113,479,113,479.1,113z M475.7,119.6c0,0.1,0,0.2,0.1,0.3l-14.7,9.2l10.5-9.5L475.7,119.6z
	 M455.6,132l-11.3,0.5l-7-12.2c0.1,0,0.1-0.1,0.2-0.2l18.2,11.6c0,0.1-0.1,0.1-0.1,0.2C455.6,131.9,455.6,131.9,455.6,132z
	 M417.9,133.5l-4.3-0.1l21.8-12.8L417.9,133.5z M417.7,133.6l-1,0.8l-7.3,1.6c0,0,0-0.1,0-0.1l4-2.3L417.7,133.6z M409.3,135.7
	c-0.1-0.1-0.3-0.3-0.5-0.3c-0.4-0.1-0.7,0.1-0.9,0.4l-5.8-2.4c0,0,0,0,0-0.1c0,0,0-0.1,0-0.1l10.8,0.2L409.3,135.7z M460,129.7
	l-2.7,1.7l13.7-11.8h0.1L460,129.7z M402.2,133.5l5.8,2.4c0,0,0,0.1,0,0.1c-0.1,0.4,0.2,0.9,0.6,1c0,0,0,0,0.1,0l-0.3,2.9
	c-0.2,0-0.4,0.1-0.5,0.2l-5.8-6.3C402.1,133.7,402.1,133.6,402.2,133.5z M409,140.4l5.9-3.5l31.9,3.2l-37.7,0.5
	C409.1,140.5,409,140.4,409,140.4z M449.3,139.7l8.1-6l10.5,17.5c-0.1,0-0.1,0.1-0.2,0.2l-18.3-11c0-0.1,0.1-0.1,0.1-0.2
	C449.5,140.1,449.4,139.9,449.3,139.7z M469.1,151.7l23.4-11.4l5.3,6.8c-0.1,0.1-0.2,0.2-0.2,0.4c0,0.1,0,0.1,0,0.2L469.1,151.7
	C469.1,151.7,469.1,151.7,469.1,151.7z M520.4,154.1c-0.1,0.4,0.2,0.8,0.6,0.9c0.3,0.1,0.6-0.1,0.8-0.3l6.6,4.5l0,0c0,0,0,0,0,0
	l-28.4-11L520.4,154.1z M529.7,159l3.5-6.2l17.9-2.4c0,0,0,0,0,0l-21.1,8.9C529.8,159.1,529.8,159,529.7,159z M552.6,150.2l22.2,0.7
	l4.3,10.1c-0.1,0.1-0.2,0.2-0.3,0.3l-26.2-11C552.6,150.3,552.6,150.3,552.6,150.2C552.6,150.3,552.6,150.3,552.6,150.2z
	 M580.2,161.8l14.3-1.8l20,11.7l-34.3-9.8C580.2,161.9,580.2,161.8,580.2,161.8z M616.1,172.3l27.5,5.1c0,0.4,0.2,0.7,0.6,0.8
	l-4.2,26.4c-0.2,0-0.3,0-0.4,0.1l-23.7-32.1C615.9,172.5,616,172.4,616.1,172.3z M640.5,204.9l23.4-24.8c0.1,0.1,0.2,0.1,0.3,0.1
	c0.2,0.1,0.4,0,0.6-0.1l16.7,21.3c-0.1,0.1-0.2,0.2-0.2,0.4c0,0,0,0.1,0,0.1l-40.6,3.3C640.6,205.1,640.6,205,640.5,204.9z
	 M682.4,201.3l15-33.9c0,0,0,0,0,0c0.2,0.1,0.5,0,0.7-0.2l18.5,19.8c-0.1,0.1-0.2,0.2-0.2,0.3c0,0.1,0,0.3,0,0.4l-33.7,13.7
	C682.7,201.5,682.6,201.4,682.4,201.3z M717.4,186.9C717.3,186.9,717.3,186.9,717.4,186.9l1.1-16.1c0.4,0,0.7-0.2,0.8-0.6
	c0-0.1,0-0.2,0-0.3l27.3-6.6c0,0.1,0,0.1,0.1,0.2l-28.9,23.7C717.6,187,717.5,186.9,717.4,186.9z M770.8,137.7l-26.7,5
	c-0.1-0.3-0.3-0.5-0.6-0.6c0,0,0,0-0.1,0l1.6-23.1c0.2,0,0.4-0.1,0.6-0.3l25.2,18.4c0,0.1-0.1,0.1-0.1,0.2
	C770.8,137.5,770.8,137.6,770.8,137.7z M744.9,119.1C744.9,119.1,744.9,119.1,744.9,119.1l-1.6,23.1c-0.3,0-0.5,0.2-0.7,0.4
	l-27.9-12.1c0,0,0,0,0-0.1c0-0.1,0-0.3,0-0.4l29.6-11.4C744.5,118.9,744.6,119,744.9,119.1z M713.3,130.6l-27.2,22.1
	c-0.1-0.1-0.2-0.2-0.4-0.2c-0.1,0-0.2,0-0.3,0l-8-30.7c0.2-0.1,0.4-0.2,0.5-0.5l35.3,8.8C713.1,130.3,713.2,130.5,713.3,130.6z
	 M676.4,121.3l-31.2,12.3c-0.1-0.2-0.3-0.4-0.5-0.4c0,0,0,0,0,0l2.4-34.8c0.2,0,0.4-0.1,0.5-0.2l28.9,22.5c0,0.1-0.1,0.1-0.1,0.2
	C676.4,121,676.4,121.1,676.4,121.3z M646.8,98.4C646.8,98.4,646.8,98.4,646.8,98.4l-2.3,34.8c-0.1,0-0.1,0-0.2,0l-13.2-30.1
	c0.2-0.1,0.3-0.3,0.4-0.5c0-0.1,0-0.2,0-0.3l14.8-4.4C646.3,98.1,646.5,98.3,646.8,98.4z M630.1,102.9l-20.5,20.9
	c-0.1-0.1-0.2-0.1-0.3-0.2c-0.1,0-0.2,0-0.3,0l-7.7-35.2c0.2-0.1,0.3-0.2,0.4-0.3l28.1,14c0,0,0,0.1,0,0.1
	C629.9,102.5,629.9,102.7,630.1,102.9z M600.5,88.1c0.1,0.1,0.2,0.2,0.3,0.3l-12.4,31.8c0,0,0,0,0,0c-0.3-0.1-0.6,0-0.8,0.2
	l-19.9-15.8c0-0.1,0.1-0.2,0.1-0.2c0-0.2,0-0.3,0-0.4L600.5,88.1z M566.2,104.1l-33.8,1.6c0-0.3-0.2-0.5-0.5-0.6l4.8-18.3
	c0.3,0.1,0.6-0.1,0.8-0.3l28.7,17.3c0,0-0.1,0.1-0.1,0.1C566.2,104.1,566.2,104.1,566.2,104.1z M536.3,86.5c0.1,0.1,0.2,0.2,0.4,0.3
	l-4.8,18.3c-0.4-0.1-0.7,0.1-0.9,0.5l-16.8-5.7c0,0,0,0,0,0c0-0.2,0-0.4-0.1-0.5L536.3,86.5z M486.3,114.1l-6-1.7c0-0.1,0-0.2,0-0.3
	l31.8-11.8L486.3,114.1z M471.4,119.4h-0.1l2.6-2.2L471.4,119.4z M457,131.5c-0.1-0.1-0.2-0.2-0.4-0.2c-0.3-0.1-0.6,0.1-0.8,0.3
	L437.6,120c0-0.1,0.1-0.1,0.1-0.2c0,0,0-0.1,0-0.1l33.1-0.1L457,131.5z M413.2,133.4l-11-0.3c0,0,0-0.1,0-0.1l33.6-12.9L413.2,133.4
	z"/>
</svg>
