<?xml version="1.0" encoding="utf-8"?>
<!-- Generator: Adobe Illustrator 25.4.1, SVG Export Plug-In . SVG Version: 6.00 Build 0)  -->
<svg version="1.1" id="Layer_1" xmlns="http://www.w3.org/2000/svg" xmlns:xlink="http://www.w3.org/1999/xlink" x="0px" y="0px"
	 viewBox="0 0 147.4 244.6" style="enable-background:new 0 0 147.4 244.6;" xml:space="preserve">
<style type="text/css">
	.st0{fill:none;stroke:#FFFFFF;stroke-width:1.5;stroke-linecap:round;stroke-linejoin:round;stroke-miterlimit:10;}
</style>
<path class="st0" d="M3,241.2c25.2-5.3,49.7-16.6,66.9-35.7s26.2-46.5,19.5-71.3c-7.1,6.6-10.9,16.8-9.7,26.5
	c0.2,1.6,0.6,3.4,1.9,4.4c1.4,1.1,3.5,1,5.3,0.7c26-3.8,51.4-21.8,56.5-47.5c2.4-12.3,0.1-24.9-1.2-37.4
	c-1.7-17.1-1.5-34.5,0.8-51.6c0.7-5.1,1.5-10.4,0.4-15.5c-1.2-5.1-5-9.9-10.2-10.5"/>
</svg>
