<?xml version="1.0" encoding="utf-8"?>
<!-- Generator: Adobe Illustrator 25.4.1, SVG Export Plug-In . SVG Version: 6.00 Build 0)  -->
<svg version="1.1" id="Layer_1" xmlns="http://www.w3.org/2000/svg" xmlns:xlink="http://www.w3.org/1999/xlink" x="0px" y="0px"
	 viewBox="0 0 129.4 246" style="enable-background:new 0 0 129.4 246;" xml:space="preserve">
<style type="text/css">
	.st0{fill:none;stroke:#FFFFFF;stroke-width:1.5;stroke-linecap:round;stroke-linejoin:round;stroke-miterlimit:10;}
</style>
<path class="st0" d="M21.1,2.9C11.9,24.4,6,47.3,3.6,70.5c-1.2,12.2-1.4,25,3.1,36.4s14.6,21.4,26.9,22.5c13,1.2,24.7-7.3,35-15.4
	c6.9-5.4,14.5-13.5,11.1-21.5c-1.4-2.5-5.1-2.9-7.6-1.6s-4.2,3.8-5.8,6.2c-7.7,11.6-15.4,23.9-16.9,37.7c-1.9,17.7,6.7,35,17.4,49.3
	c11.3,15.1,25,28.4,40.5,39.1c7.8,5.4,16.6,10.9,19.2,20"/>
</svg>
