<?xml version="1.0" encoding="utf-8"?>
<!-- Generator: Adobe Illustrator 25.4.1, SVG Export Plug-In . SVG Version: 6.00 Build 0)  -->
<svg version="1.1" id="Layer_1" xmlns="http://www.w3.org/2000/svg" xmlns:xlink="http://www.w3.org/1999/xlink" x="0px" y="0px"
	 viewBox="0 0 24 24" style="enable-background:new 0 0 24 24;" xml:space="preserve">
<style type="text/css">
	.st0{fill:none;stroke:#35B7F3;stroke-width:1.5;stroke-linecap:round;stroke-linejoin:round;}
</style>
<g>
	<line class="st0" x1="15.5" y1="10" x2="8.5" y2="6.1"/>
	<path class="st0" d="M19,15V9c0-0.5-0.3-1-0.8-1.3l-5.4-3c-0.5-0.3-1.1-0.3-1.6,0l-5.4,3C5.3,7.9,5,8.4,5,8.9v6
		c0,0.5,0.3,1,0.8,1.3l5.4,3c0.5,0.3,1.1,0.3,1.6,0l5.4-3C18.7,16,19,15.5,19,15z"/>
	<polyline class="st0" points="5.2,8.1 12,12 18.8,8.1 	"/>
	<line class="st0" x1="12" y1="19.6" x2="12" y2="12"/>
</g>
</svg>
