<?xml version="1.0" encoding="utf-8"?>
<!-- Generator: Adobe Illustrator 25.4.1, SVG Export Plug-In . SVG Version: 6.00 Build 0)  -->
<svg version="1.1" id="Layer_1" xmlns="http://www.w3.org/2000/svg" xmlns:xlink="http://www.w3.org/1999/xlink" x="0px" y="0px"
	 viewBox="0 0 24 24" style="enable-background:new 0 0 24 24;" xml:space="preserve">
<style type="text/css">
	.st0{fill:none;stroke:#35B7F3;stroke-width:1.5;stroke-linecap:round;stroke-linejoin:round;}
</style>
<g>
	<path class="st0" d="M6.2,4.9h11.6c0.8,0,1.5,0.6,1.5,1.4v2.8c0,0.8-0.6,1.4-1.5,1.4H6.2c-0.8,0-1.4-0.6-1.4-1.4V6.3
		C4.8,5.5,5.4,4.9,6.2,4.9z"/>
	<path class="st0" d="M6.2,13.4h11.6c0.8,0,1.5,0.6,1.5,1.4v2.8c0,0.8-0.6,1.4-1.5,1.4H6.2c-0.8,0-1.4-0.6-1.4-1.4v-2.8
		C4.8,14.1,5.4,13.4,6.2,13.4z"/>
	<line class="st0" x1="7.7" y1="7.8" x2="7.7" y2="7.8"/>
	<line class="st0" x1="7.7" y1="16.2" x2="7.7" y2="16.2"/>
</g>
</svg>
