<?xml version="1.0" encoding="utf-8"?>
<!-- Generator: Adobe Illustrator 25.4.1, SVG Export Plug-In . SVG Version: 6.00 Build 0)  -->
<svg version="1.1" id="Layer_1" xmlns="http://www.w3.org/2000/svg" xmlns:xlink="http://www.w3.org/1999/xlink" x="0px" y="0px"
	 viewBox="0 0 24 24" style="enable-background:new 0 0 24 24;" xml:space="preserve">
<style type="text/css">
	.st0{fill:none;stroke:#35B7F3;stroke-width:1.5;stroke-linecap:round;stroke-linejoin:round;}
</style>
<g>
	<path class="st0" d="M12.7,5.2l4.7,2.5C18,8,18,8.8,17.4,9.1l-4.7,2.5c-0.4,0.2-0.9,0.2-1.3,0L6.6,9.1C6.1,8.8,6.1,8,6.6,7.7
		l4.7-2.5C11.8,5,12.2,5,12.7,5.2z"/>
	<path class="st0" d="M5.9,10.7l4.4,2.1c0.5,0.3,0.9,0.8,0.9,1.4v4c0,0.6-0.6,1-1.2,0.7l-4.4-2.1c-0.5-0.3-0.9-0.8-0.9-1.4v-4
		C4.8,10.8,5.4,10.5,5.9,10.7z"/>
	<path class="st0" d="M18.1,10.7l-4.4,2.1c-0.5,0.3-0.9,0.8-0.9,1.4v4c0,0.6,0.6,1,1.2,0.7l4.4-2.1c0.5-0.3,0.9-0.8,0.9-1.4v-4
		C19.2,10.8,18.6,10.5,18.1,10.7z"/>
</g>
</svg>
