<?xml version="1.0" encoding="utf-8"?>
<!-- Generator: Adobe Illustrator 25.4.1, SVG Export Plug-In . SVG Version: 6.00 Build 0)  -->
<svg version="1.1" id="Layer_1" xmlns="http://www.w3.org/2000/svg" xmlns:xlink="http://www.w3.org/1999/xlink" x="0px" y="0px"
	 viewBox="0 0 24 24" style="enable-background:new 0 0 24 24;" xml:space="preserve">
<style type="text/css">
	.st0{fill:none;stroke:#35B7F3;stroke-width:1.5;stroke-linecap:round;stroke-linejoin:round;}
</style>
<g>
	<polyline class="st0" points="19.8,9 19.8,5 15.6,5 	"/>
	<line class="st0" x1="14.9" y1="9.7" x2="19.8" y2="5"/>
	<path class="st0" d="M19.1,15.7v2c0,0.7-0.6,1.3-1.4,1.3h-0.1c-2.1-0.2-4.2-0.9-6-2.1c-1.7-1-3.1-2.4-4.2-4
		c-1.1-1.7-1.9-3.7-2.1-5.8C5.2,6.4,5.8,5.7,6.6,5.7h0.1h2.1c0.7,0,1.3,0.5,1.4,1.2c0.1,0.6,0.3,1.3,0.5,1.9c0.2,0.5,0.1,1-0.3,1.4
		L9.5,11c1,1.7,2.4,3.1,4.2,4l0.9-0.9c0.4-0.4,1-0.5,1.5-0.3c0.6,0.2,1.3,0.4,2,0.5C18.6,14.4,19.1,15,19.1,15.7z"/>
</g>
</svg>
