<?xml version="1.0" encoding="utf-8"?>
<!-- Generator: Adobe Illustrator 25.4.1, SVG Export Plug-In . SVG Version: 6.00 Build 0)  -->
<svg version="1.1" id="Layer_1" xmlns="http://www.w3.org/2000/svg" xmlns:xlink="http://www.w3.org/1999/xlink" x="0px" y="0px"
	 viewBox="0 0 24 24" style="enable-background:new 0 0 24 24;" xml:space="preserve">
<style type="text/css">
	.st0{fill:none;stroke:#999999;stroke-width:1.5;stroke-linecap:round;stroke-linejoin:round;stroke-miterlimit:10;}
	.st1{fill:none;stroke:#999999;stroke-width:1.5;stroke-linecap:round;stroke-linejoin:round;}
</style>
<path class="st0" d="M18,18.9h-0.8c-0.8,0-1.6,0.3-2.1,0.9l-1.7,1.7c-0.8,0.8-2.1,0.8-2.8,0l-1.7-1.7c-0.6-0.6-1.3-0.9-2.1-0.9H6
	c-1.7,0-3-1.3-3-3V5c0-1.6,1.3-3,3-3h12c1.7,0,3,1.3,3,3v10.9C21,17.5,19.7,18.9,18,18.9z"/>
<path class="st1" d="M12.3,15c-0.1,0.1-0.4,0.1-0.6,0c-1.3-0.4-4.2-2.3-4.2-5.4C7.5,8.1,8.6,7,10,7c0.8,0,1.5,0.4,2,1
	c0.5-0.6,1.2-1,2-1c1.4,0,2.5,1.1,2.5,2.5C16.5,12.7,13.6,14.5,12.3,15z"/>
</svg>
