<?xml version="1.0" encoding="utf-8"?>
<!-- Generator: Adobe Illustrator 25.4.1, SVG Export Plug-In . SVG Version: 6.00 Build 0)  -->
<svg version="1.1" id="Layer_1" xmlns="http://www.w3.org/2000/svg" xmlns:xlink="http://www.w3.org/1999/xlink" x="0px" y="0px"
	 viewBox="0 0 24 24" style="enable-background:new 0 0 24 24;" xml:space="preserve">
<style type="text/css">
	.st0{fill:none;stroke:#999999;stroke-width:1.5;stroke-linecap:round;stroke-linejoin:round;}
</style>
<path class="st0" d="M22,16.7V4.7c0-1.2-1-2.1-2.2-2h-0.1c-2.1,0.2-5.3,1.2-7.1,2.4l-0.2,0.1c-0.3,0.2-0.8,0.2-1.1,0L11.2,5
	c-1.8-1.1-5-2.2-7.1-2.3C3,2.6,2,3.5,2,4.7v12.1c0,1,0.8,1.9,1.7,2l0.3,0c2.2,0.3,5.5,1.4,7.4,2.4l0,0c0.3,0.1,0.7,0.1,1,0
	c1.9-1.1,5.3-2.2,7.5-2.5l0.3,0C21.2,18.6,22,17.7,22,16.7z"/>
<path class="st0" d="M12,5.5v15"/>
<path class="st0" d="M7.8,8.5H5.5"/>
<path class="st0" d="M8.5,11.5h-3"/>
</svg>
