<?xml version="1.0" encoding="utf-8"?>
<!-- Generator: Adobe Illustrator 25.4.1, SVG Export Plug-In . SVG Version: 6.00 Build 0)  -->
<svg version="1.1" id="Layer_1" xmlns="http://www.w3.org/2000/svg" xmlns:xlink="http://www.w3.org/1999/xlink" x="0px" y="0px"
	 viewBox="0 0 24 24" style="enable-background:new 0 0 24 24;" xml:space="preserve">
<style type="text/css">
	.st0{fill:none;stroke:#999999;stroke-width:1.5;stroke-linecap:round;stroke-linejoin:round;stroke-miterlimit:10;}
	.st1{fill:none;stroke:#999999;stroke-width:1.5;stroke-linecap:round;stroke-linejoin:round;}
	.st2{fill:none;stroke:#999999;stroke-width:2;stroke-linecap:round;stroke-linejoin:round;}
</style>
<path class="st0" d="M22,10v3c0,4-2,6-6,6h-0.5c-0.3,0-0.6,0.1-0.8,0.4l-1.5,2c-0.7,0.9-1.7,0.9-2.4,0l-1.5-2
	C9.1,19.2,8.8,19,8.5,19H8c-4,0-6-1-6-6V8c0-4,2-6,6-6h6"/>
<path class="st1" d="M19.5,7C20.9,7,22,5.9,22,4.5S20.9,2,19.5,2S17,3.1,17,4.5S18.1,7,19.5,7z"/>
<path class="st2" d="M16,11L16,11"/>
<path class="st2" d="M12,11L12,11"/>
<path class="st2" d="M8,11L8,11"/>
</svg>
