<?xml version="1.0" encoding="utf-8"?>
<!-- Generator: Adobe Illustrator 26.0.1, SVG Export Plug-In . SVG Version: 6.00 Build 0)  -->
<svg version="1.1" id="Layer_1" xmlns="http://www.w3.org/2000/svg" xmlns:xlink="http://www.w3.org/1999/xlink" x="0px" y="0px"
	 viewBox="0 0 27.6 27.7" style="enable-background:new 0 0 27.6 27.7;" xml:space="preserve">
<style type="text/css">
	.st0{fill:#35B7F3;}
</style>
<path class="st0" d="M19.7,1L6.9,5.3c-8.6,2.9-8.6,7.6,0,10.5l3.8,1.3l1.3,3.8c2.9,8.6,7.6,8.6,10.5,0L26.7,8
	C28.6,2.2,25.5-0.9,19.7,1z M20.2,8.6l-5.4,5.4c-0.2,0.2-0.5,0.3-0.8,0.3c-0.3,0-0.5-0.1-0.8-0.3c-0.4-0.4-0.4-1.1,0-1.5l5.4-5.4
	c0.4-0.4,1.1-0.4,1.5,0C20.6,7.5,20.6,8.2,20.2,8.6z"/>
</svg>
