<?xml version="1.0" encoding="utf-8"?>
<!-- Generator: Adobe Illustrator 25.2.1, SVG Export Plug-In . SVG Version: 6.00 Build 0)  -->
<svg version="1.1" id="Layer_1" xmlns="http://www.w3.org/2000/svg" xmlns:xlink="http://www.w3.org/1999/xlink" x="0px" y="0px"
	 viewBox="0 0 24 24" style="enable-background:new 0 0 24 24;" xml:space="preserve">
<style type="text/css">
	.st0{fill:none;stroke:#35B7F3;stroke-width:2;stroke-linecap:round;stroke-linejoin:round;}
</style>
<path class="st0" d="M20,11c0,5-4,9-9,9s-9-4-9-9s4-9,9-9"/>
<path class="st0" d="M13.5,6.1c-0.3-1.1,0.1-2.5,1.2-2.8c0.6-0.2,1.4,0,1.8,0.6c0.4-0.6,1.2-0.8,1.8-0.6c1.2,0.4,1.6,1.7,1.2,2.8
	c-0.5,1.8-2.5,2.7-3,2.7C16,8.8,14.1,7.9,13.5,6.1z"/>
<path class="st0" d="M18.9,20.7c0.5,1.6,1.7,1.8,2.7,0.4c0.9-1.3,0.3-2.3-1.2-2.3C19.2,18.7,18.6,19.6,18.9,20.7z"/>
</svg>
