<?xml version="1.0" encoding="utf-8"?>
<!-- Generator: Adobe Illustrator 25.4.1, SVG Export Plug-In . SVG Version: 6.00 Build 0)  -->
<svg version="1.1" id="Layer_1" xmlns="http://www.w3.org/2000/svg" xmlns:xlink="http://www.w3.org/1999/xlink" x="0px" y="0px"
	 viewBox="0 0 37 37" style="enable-background:new 0 0 37 37;" xml:space="preserve">
<style type="text/css">
	.st0{fill:#FFDD67;}
	.st1{fill:#F46767;}
	.st2{fill:#664E27;}
	.st3{fill:#FFFFFF;}
</style>
<g>
	<g>
		<path class="st0" d="M35.4,19c0,9.3-7.6,16.9-16.9,16.9C9.2,35.9,1.6,28.4,1.6,19c0-9.3,7.6-16.9,16.9-16.9
			C27.8,2.2,35.4,9.7,35.4,19z"/>
		<path class="st1" d="M35.3,8.5C35,7,34.1,5.7,32.8,5.4c-1.5-0.4-2.9,0.2-4.2,1.5c-0.7-2-1.9-3.6-3.7-4.3c-1.8-0.8-3.6-0.3-4.7,1.2
			c-1.2,1.5-1.6,3.8-0.4,6.7c1.2,2.8,6.4,8.4,6.6,8.6c0.2-0.1,6-3.8,7.5-5.6C35.3,11.7,35.5,10,35.3,8.5z"/>
		<path class="st1" d="M16.8,3.7c-1.1-1.4-2.9-2-4.7-1.2c-1.8,0.8-2.9,2.3-3.7,4.3C7.1,5.5,5.7,4.9,4.2,5.4C2.9,5.7,2,7,1.7,8.5
			c-0.3,1.5,0,3.2,1.4,5c1.4,1.8,7.3,5.4,7.5,5.6c0.2-0.2,5.4-5.8,6.6-8.6C18.4,7.5,18,5.2,16.8,3.7z"/>
		<path class="st2" d="M28.1,22.4c0-0.5-0.3-1-1-1.2c-1.9-0.4-4.8-0.8-8.5-0.8h0c-3.7,0-6.6,0.4-8.5,0.8c-0.8,0.1-1,0.7-1,1.2
			c0,4.1,3.2,8.2,9.6,8.2h0C24.9,30.7,28.1,26.5,28.1,22.4z"/>
		<path class="st3" d="M25.6,22.6c-1.2-0.2-3.8-0.6-7.1-0.6c-3.3,0-5.9,0.4-7.1,0.6c-0.7,0.1-0.8,0.4-0.7,0.8c0,0.2,0.1,0.5,0.1,0.9
			c0.1,0.4,0.1,0.5,0.7,0.5c1.1-0.1,12.9-0.1,14,0c0.6,0.1,0.6-0.1,0.7-0.5c0.1-0.3,0.1-0.6,0.1-0.9C26.4,23,26.4,22.7,25.6,22.6z"
			/>
	</g>
</g>
</svg>
