<?xml version="1.0" encoding="utf-8"?>
<!-- Generator: Adobe Illustrator 25.4.1, SVG Export Plug-In . SVG Version: 6.00 Build 0)  -->
<svg version="1.1" id="Layer_1" xmlns="http://www.w3.org/2000/svg" xmlns:xlink="http://www.w3.org/1999/xlink" x="0px" y="0px"
	 viewBox="0 0 22 22" style="enable-background:new 0 0 22 22;" xml:space="preserve">
<style type="text/css">
	.st0{fill:#FFDD67;}
	.st1{fill:#EBA351;}
</style>
<g>
	<g>
		<path class="st0" d="M16.9,11.3L14.5,13c0,0-1.2-3.3-2.1-5.3c-0.4-0.8-1.5-1.1-2-2.3c-0.9-2.1,0.2-3.8,1.3-2.6
			c1.3,1.5,3.1,2.6,3.5,3.4C15.8,7.6,16.9,11.3,16.9,11.3z"/>
		<path class="st0" d="M18.7,12.6c0.2,1.1,0,2.9-1,4.9c0,0-2-2.4-2.3-3.5c0,0-0.6-4.2-1.2-6.9c-0.2-1.1-1.5-1.7-1.9-3.3
			c-0.6-2.7,1.1-4.6,2.1-2.8c1.1,2.1,3.1,3.9,3.3,5C18.4,7.9,18.5,11,18.7,12.6z"/>
		<path class="st1" d="M15.7,10.5c0,0-0.2-1.6-0.8-4.3c-0.2-1.1-1.5-1.7-1.9-3.3C12.9,2,13,1.2,13.2,0.6c-0.6,0.5-1.1,1.7-0.8,3.3
			c0.3,1.5,1.6,2.2,1.9,3.3c0.2,1.2,0.5,2.4,0.5,2.4L13,8.8L15.7,10.5z"/>
		<path class="st0" d="M17.9,12.2c-2.4-2.1-5-3.4-6.7-4.3C8.7,6.7,9.4,8.4,5.1,9.5c-0.6,0.1-1.2,0.6-0.7,1.6c0.5,1,4.6,0.3,5.2-0.4
			c0,0,1.7,2.1,3.4,2c0,0-0.3,1.4,0.1,2c0,0-2.4,1.2-3.4,2.3l-2.9-1.9c-0.2-3-0.7-3.8-2.2-3.7c-1.4,0.1-1.2,1.4-1.2,2.4
			c0.1,1.9-0.4,2.2,0,2.9c1.8,2.9,4,4.6,8.1,4.6c1.5,0,2.5,0,3.5-0.5C16.5,20.3,20.5,14.6,17.9,12.2z"/>
		<path class="st1" d="M18.3,12.8c0.9,2.7-2.3,7.1-3.6,7.8c-0.9,0.5-1.9,0.5-3.5,0.5c-4.1,0-6.3-1.7-8-4.5c0,0.2,0.1,0.3,0.2,0.4
			c1.8,2.9,4,4.6,8.1,4.6c1.5,0,2.5,0,3.5-0.5C16.4,20.4,19.9,15.4,18.3,12.8z"/>
		<path class="st1" d="M6.3,15.4c0,0,2.7,1.7,3.3,1.8l-2.8-1.9c0.1-3-0.8-3.9-2.2-3.7c-0.1,0-0.2,0-0.3,0.1
			C5.7,11.5,6.4,12.5,6.3,15.4z"/>
		<path class="st1" d="M9.5,10.8c0,0,1.7,2.1,3.4,2v-0.4c-1.7,0-3.4-2-3.4-2c-0.6,0.6-4.7,1.4-5.2,0.4c-0.1-0.2-0.1-0.3-0.2-0.5
			c0,0.2,0,0.5,0.2,0.9C4.9,12.2,8.9,11.4,9.5,10.8z"/>
	</g>
</g>
</svg>
