<?xml version="1.0" encoding="utf-8"?>
<!-- Generator: Adobe Illustrator 25.4.1, SVG Export Plug-In . SVG Version: 6.00 Build 0)  -->
<svg version="1.1" id="Layer_2" xmlns="http://www.w3.org/2000/svg" xmlns:xlink="http://www.w3.org/1999/xlink" x="0px" y="0px"
	 viewBox="0 0 544.9 460.2" style="enable-background:new 0 0 544.9 460.2;" xml:space="preserve">
<style type="text/css">
	.st0{fill:#3FBDF1;}
	.st1{fill:none;stroke:#CCDDE2;stroke-width:3;stroke-miterlimit:10;}
	.st2{fill:none;stroke:#000000;stroke-width:3;stroke-miterlimit:10;}
	.st3{fill:none;stroke:#000000;stroke-width:3;stroke-linecap:round;stroke-linejoin:round;stroke-miterlimit:10;}
	.st4{fill:#353642;}
	.st5{fill:#D7E8F0;}
	.st6{opacity:0;fill:#353642;}
	.st7{opacity:8.000000e-02;fill:none;stroke:#000000;stroke-width:3;stroke-miterlimit:10;}
	.st8{fill:#FFFFFF;}
	.st9{opacity:0.2;}
	.st10{fill:#3FBDF1;stroke:#3FBDF1;stroke-width:0.7;stroke-miterlimit:10;}
	.st11{fill:none;stroke:#CCDDE2;stroke-width:2;stroke-miterlimit:10;}
	.st12{fill:none;stroke:#CCDDE2;stroke-width:2;stroke-miterlimit:10;stroke-dasharray:5.034,5.034;}
	.st13{fill:none;stroke:#CCDDE2;stroke-width:2;stroke-miterlimit:10;stroke-dasharray:5;}
</style>
<path class="st0" d="M87.5,174.3c-1.3,2.2-4.1,3.1-6.4,3.6c-3,0.6-6.2,0.8-9.2,1.1l-1.8,0.4c0,0,0,0,0,0c-1.4,0.4-2.2,1.9-1.8,3.4
	c0.7,2.4,2.2,6.8,4.5,10.9l-2.8,2.8c-0.8-1.1-0.8-3-1.9-2.8c-1-1-2.3-1.5-3.5-0.2c-2.5,2.7-2.1,8.3,1.6,9.9l-0.8,4
	c-0.6,2.9-3.1,5-6.1,5c0.4-2.8,0.6-4.8,0.6-4.8c-4.2,2.1-9-2.5-8.7-6.3c0.2-2.6-0.4-4.4-2.3-6.3c-0.1-0.1,0.6-0.6,0.5-0.7
	c-0.5-1.7-0.6-3.6-0.1-4.7c1-1.9,3.7-3.1,2.4-5.2c-0.5-0.9-1-1.9-1.2-3c-0.6-2.7,0.3-5.9,2-8c1.9-2.3,4.9-1.7,7.4-2.4
	c3-1,4.4-4.2,7.6-5.2c1.6-0.5,3.1-0.3,4.6,0.1c1.3,0.3,2.7,0.7,4,1.1c1.3,0.4,2.5,0.8,3.8,0.4c1.7-0.5,3-2.1,4.9-2.1
	c1,0,1.9,0.3,2.6,0.8C88.8,168.6,88.8,172.1,87.5,174.3z"/>
<path class="st1" d="M29.3,237.9c0,0-51.2-56.5,24.2-84.7c4.4-1.6,8.9-2.6,13.6-3.1c12-1.3,38.6-5.8,41.7-21.2"/>
<line class="st1" x1="244.3" y1="158.9" x2="244.3" y2="158.9"/>
<line class="st2" x1="109.9" y1="260.6" x2="109.9" y2="260.6"/>
<path class="st2" d="M76.7,175.7"/>
<path class="st3" d="M69.9,196.1c-0.5-0.8-1.1-1.7-1.8-2.4c-1-1-2.3-1.5-3.5-0.2c-2.5,2.7-2.1,8.3,1.6,9.9l-0.8,4
	c-0.6,2.9-3.1,5-6.1,5"/>
<path class="st3" d="M56.9,230.4c0.2-1.6,0.7-5.7,1.2-9.6c0.5-3.6,0.9-7.2,1.1-8.3c0.4-2.8,0.6-4.8,0.6-4.8"/>
<path class="st2" d="M86,183.3c0,0-6,0.3-7.2,5.3"/>
<path class="st2" d="M88.1,196.4c1.6,0,3.8-0.3,4.5-1.9l-4.1-4.6c-1-1.1-1.6-2.5-1.7-4.1c-0.2-2.5,0.1-6.5-2.3-9.2"/>
<ellipse transform="matrix(0.6706 -0.7418 0.7418 0.6706 -112.7537 124.174)" cx="83.4" cy="189.1" rx="1.8" ry="1.6"/>
<line class="st2" x1="84.2" y1="226.4" x2="81.1" y2="211.3"/>
<path class="st4" d="M163.3,294.5l-20.1,16.4c24.2,36.9,5.9,43.7,5.9,43.7c-3.5,0.7-7.1,1.2-10.7,1.4c-17.5,1.3-35.4-3.2-49.8-13.4
	c-29.1-20.5-54.6-61.4-41-97.1c1.1-3,2.5-5.9,4.2-8.7c1.5-2.5,3.2-4.6,5.3-6.4c7.5-6.5,18.2-8.2,27.3-4c1.7,0.8,3.3,1.7,4.8,2.9
	c7.6,5.8,14.5,14.1,20.5,22.8c5.7,8.4,10.6,17.1,14.3,24.5c1.2,2.3,2.2,4.5,3.1,6.5c8.4-3.4,15.5-9.2,22.1-15.5
	C141.1,282.6,163.3,294.5,163.3,294.5z"/>
<g>
	<path class="st2" d="M149.2,306.5c-0.4,0.3-0.8,0.6-1.2,0.9"/>
	<path class="st2" d="M89.8,244c5.3,10.2,10.7,20.4,16,30.7c4,7.7,10.8,12.5,20.4,8.8c10.4-4,18.8-11.6,26.6-19.4
		c7.7-7.8,15.6-15.2,26.9-17.2c14.5-2.6,28.2,5.3,38.1,15.3c1.6,1.6,1.9,4,0.7,5.9c-0.4,0.6-0.9,1.1-1.4,1.5c-1.7,1.1-4,1.1-5.7-0.3
		c-4.7-4-12.3-9.8-17.6-9.8"/>
	<path class="st2" d="M179.2,273.1c1.6,1.1,3.9,2.3,5.8,2.3"/>
	<path class="st2" d="M200,261.4c3.5,1.7,4.7,6.7,2.3,9.7c-2.6,3.2-6.3,6.7-11.4,9.2c-4.8,2.4-7.9,1-12.7-2"/>
	<path class="st2" d="M192,265.9c0,0,6.9,1.7,6.7,8.4c0,0.3-0.1,0.6-0.2,0.8"/>
	<path class="st2" d="M187.1,270.1c0,0,9.2,6,4.8,9.7"/>
</g>
<path class="st0" d="M367.8,297c-12,32.9-45.5,33.9-49.4,33.9c1.6-3.4,2-9.3-1.5-19.8c2.2-3.1,3.6-7.1,3.6-11.5
	c0-4.6-1.4-8.7-3.8-11.8c0,0,0.1-0.1,0.1-0.1c1.7-0.1,3.3-0.4,5-0.8c5.8-1.4,17.2-4.4,26.3-8.7c6.1-2.9,13.3,1.7,12.8,8.5
	c0,0.1,0,0.2,0,0.3C365.9,287,369.5,292.1,367.8,297z"/>
<path class="st5" d="M225.9,363.5c-3.7,6.3-9.4,11.6-14.9,16.3c-19.4,16.4-44.7,24.7-70.1,25c-25.5-0.3-50.9-8.7-70.4-24.9
	c-61.5-51.4-50.4-112-40.4-140.1c0.4-1,0.8-1.9,1.4-2.7c1.7-2.5,4.2-3.8,6.8-4.2c5.2,0.7,10,5.1,9.1,11.8c0,0.3-0.1,0.6-0.1,0.9
	c-13.5,35.7,11.9,76.6,41,97.1c13.2,9.3,29.4,13.8,45.5,13.5h0.2c1.4,0,2.8-0.1,4.1-0.2c9-0.7,17.8-2.8,26.5-5.4h0
	c10.2-3.1,20.3-6.8,30.5-9.3c3.6-0.9,7.2-1.8,10.8-2.6c2.2-0.4,4.3-0.6,6.3-0.4C224.9,339,233.7,350.1,225.9,363.5z"/>
<path class="st5" d="M229,363.5c-3.7,6.3-9.4,11.6-14.9,16.3c-20.1,17.1-46.7,25.4-73.2,25c-25.5-0.3-50.9-8.7-70.4-24.9
	c-61.5-51.4-50.4-112-40.4-140.1c0.4-1,0.8-1.9,1.4-2.7c1.7-2.5,4.2-3.8,6.8-4.2c5.2,0.7,10,5.1,9.1,11.8c0,0.3-0.1,0.6-0.1,0.9
	c-13.5,35.7,11.9,76.6,41,97.1c13.2,9.3,29.4,13.8,45.5,13.5h0.2c2.4,0,4.8,0,7.2-0.2c9-0.7,17.8-2.8,26.5-5.4h0
	c10.2-3.1,20.3-6.8,30.5-9.3c3.6-0.9,7.2-1.8,10.8-2.6c1.1-0.2,2.2-0.4,3.2-0.4C226.5,337.2,237.4,349,229,363.5z"/>
<path class="st6" d="M145.2,404.7l6.2,8.8c0,0,37.5,1.5,58,18.7c3.8,3.2,1.5,9.4-3.4,9.4h0c-1.2,0-2.4-0.4-3.4-1.2
	c-4.8-4.1-23.3-16.8-65.2-17.2c-40.8-0.4-56.4,12.2-60.7,16.8c-1,1.1-2.4,1.6-3.8,1.6H72c-5.1,0-7.2-6.4-3.2-9.5
	c17.1-13.3,55.5-17.5,55.5-17.5l6.5-9.9"/>
<path class="st6" d="M311,356.2c0,0,11.5,10.9,7.9,44.7c-0.3,2.4-1.1,4.7-2.4,6.7l-1.3,1.9c-2,3.1-5.1,5.3-8.7,6.2
	c-7.5,2-21.1,6.8-29.5,15.8c-3.6,3.8-0.9,10,4.3,10h0c2,0,3.8-1,4.9-2.6c3.4-5.1,13.8-16.1,38.7-15.8c28.2,0.3,39.5,11.5,43.2,16.3
	c1,1.4,2.6,2.2,4.3,2.2l0,0c4.7,0,7.1-5.6,3.9-9.1c-11-11.9-24.4-16.4-31.8-18c-3.7-0.8-7-3-9.2-6.1l0,0c-1.7-2.4-2.7-5.2-2.8-8.2
	c-0.4-10.5-0.6-35.9,6.5-44"/>
<path class="st2" d="M318,310.7"/>
<path class="st2" d="M164.8,350.5c20.2-9.8,42.1-16.2,63.6-22.3c21.7-6.1,43.5-11.4,65.5-16.4c8.8-2,17.6-3.7,26.3-6"/>
<polyline class="st2" points="183.8,275.3 183.8,275.3 183.8,275.3 "/>
<path class="st2" d="M181.5,274c-1.3,1.3-5.8,7.9-6.9,9.1c-6.3,6.6-12.8,13-19.8,18.9c-1.8,1.5-3.6,3-5.6,4.5
	c-0.4,0.3-0.8,0.6-1.2,0.9c-13.3,10.1-30.6,19.7-46.6,13.5c-0.4-0.2-0.8-0.3-1.3-0.5c-24.5-11-41.7-38.5-43.2-65
	c-0.1-0.9-0.1-1.7-0.1-2.6c-0.1-7.3,1-14.5,7.9-18.4"/>
<path class="st2" d="M47.5,245.5c0-0.3,0.1-0.5,0.1-0.8c1.6-12.5-16.2-16.7-20.4-4.9c-9.9,28.1-21.1,88.7,40.4,140.1
	c39.7,33.2,104,33.4,143.6-0.1c5.5-4.7,11.2-10,14.9-16.3c9.3-15.9-4.9-28.6-20.9-24.7"/>
<path class="st7" d="M145.2,404.7l6.2,8.8c0,0,37.5,1.5,58,18.7c3.8,3.2,1.5,9.4-3.4,9.4h0c-1.2,0-2.4-0.4-3.4-1.2
	c-4.8-4.1-23.3-16.8-65.2-17.2c-40.8-0.4-56.4,12.2-60.7,16.8c-1,1.1-2.4,1.6-3.8,1.6H72c-5.1,0-7.2-6.4-3.2-9.5
	c17.1-13.3,55.5-17.5,55.5-17.5l6.5-9.9"/>
<path class="st2" d="M124.3,275.9c15.7-4.3,22.2-26.4,24.8-41.3"/>
<path class="st2" d="M109.5,252.1c0,0,13.8-1.1,20.1-15c0.7-1.6,0.7-3.5-0.1-5.1c-1.7-3.2-4.3-6.8-3.7-10.6c0.4-2.7,2.6-4.6,5.2-5.2
	c1.3-0.3,2.6-0.3,3.9,0.1c1.5,0.5,2.8,1.5,3.4,3c0.6,1.4-0.1,2.9-1.3,3.8c-1.1,1-2.5,1.3-3.8,1.7c-0.2,0.1-0.7,0.2-1.2,0.3"/>
<path class="st2" d="M318,310.7c0,0,34.1-7.2,40.6-17.4c1.3-2.1,2-4.3,2.2-6.3"/>
<path class="st2" d="M167.9,289.9c54-5.7,114.9-4.9,114.9-4.9h34.2c2.2,0,4.4-0.3,6.6-0.8c5.2-1.3,15.6-4,23.8-7.9
	c5.6-2.6,12.1,1.6,11.6,7.7c0,0.1,0,0.2,0,0.2c4.7,0,8,4.7,6.3,9.1c-11.5,31.7-45.1,30.7-45.1,30.7c-4.3,0.1-8.6,0.3-12.9,0.5
	c-37.8,1.8-75.3,7.2-112.1,16.5c-10.2,2.6-20.3,6.3-30.5,9.3c-8.7,2.6-17.5,4.8-26.5,5.4c-17.5,1.3-35.4-3.2-49.8-13.4
	c-31.6-22.1-58.7-68.3-36.9-105.8c7.7-13.2,25.2-16.8,37.4-7.5c17.2,13.1,30.9,38.8,38,53.9"/>
<line class="st2" x1="364.6" y1="356.2" x2="289.5" y2="356.2"/>
<path class="st2" d="M274.3,341L274.3,341c0-8.3,6.8-15.2,15.2-15.2h75.1c8.3,0,15.2,6.8,15.2,15.2v0"/>
<path class="st5" d="M381.3,346.4c0,2.7-1.1,5.2-2.9,6.9c-1.8,1.8-4.2,2.9-6.9,2.9h-88.9c-3.3,0-6.3-1.7-8-4.2c-0.3-1-0.5-2-0.5-3
	c0-2.7,1.1-5.2,2.9-6.9c1.8-1.8,4.2-2.9,6.9-2.9h88.9c3.3,0,6.3,1.7,8,4.2C381.1,344.3,381.3,345.3,381.3,346.4z"/>
<path class="st2" d="M381.3,346.4c0,2.7-1.1,5.2-2.9,6.9c-1.8,1.8-4.2,2.9-6.9,2.9h-88.9c-3.3,0-6.3-1.7-8-4.2
	c-1.1-1.6-1.8-3.5-1.8-5.6c0-2.7,1.1-5.2,2.9-6.9c1.8-1.8,4.2-2.9,6.9-2.9h88.9c4.4,0,8,2.8,9.3,6.8
	C381.1,344.3,381.3,345.3,381.3,346.4z"/>
<path class="st2" d="M148.9,234.3l-0.2,1.5c-0.2,1.4-1.4,2.5-2.8,2.5h-9.8c-1.4,0-2.6-1.1-2.8-2.5l-1.3-10.8c0.5-0.1,1-0.2,1.2-0.3
	c1.4-0.4,2.7-0.7,3.8-1.7c1.1-0.9,1.9-2.4,1.3-3.8c-0.6-1.5-1.9-2.6-3.4-3c-1.3-0.4-2.6-0.4-3.9-0.1l-0.3-2.6
	c-0.2-1.7,1.1-3.1,2.8-3.1h15c1.7,0,3,1.5,2.8,3.1l-0.3,2.9"/>
<line class="st2" x1="150.2" y1="223.3" x2="150.2" y2="223.4"/>
<line class="st2" x1="149.4" y1="229.5" x2="149.4" y2="229.4"/>
<path class="st2" d="M149.6,229.5L149.6,229.5c-0.1,0-0.1,0-0.1,0c-0.1,0-0.1,0-0.2,0c-1.2,0-2.2,0.9-2.4,2.1
	c-0.2,1.3,0.8,2.5,2,2.7c0.2,0.1,0.5,0.1,0.8,0c2-0.4,3-1.7,3-1.7c1.1-1.7,1.8-3.6,2.1-5.6c0,0,0,0,0-0.1c0.3-1.4,0.4-2.9,0.3-4.4
	c0-0.6-0.1-1.3-0.2-1.9c-0.3-2.1-2-3.8-4-4.1c-0.1,0-0.1,0-0.2,0c-2-0.2-4.7,0.5-5.3,2.7c-0.5,2,1.7,3.7,3.5,3.9
	c0,0,0.5,0.1,1.1,0.1c1.3,0.1,3.5,0.1,5-0.7c0.2-0.1,0.4-0.2,0.6-0.4"/>
<path class="st2" d="M151.6,223.4l-0.3,0c0,0-2.5,0-2.5,0l-1.1,0c-1.6,0-2.8,1.2-2.9,2.8l0,0c-0.1,1.5,1,2.8,2.5,3
	c3.2,0.5,7,0.6,7.6-2.3"/>
<path class="st7" d="M311,356.2c0,0,11.5,10.9,7.9,44.7c-0.3,2.4-1.1,4.7-2.4,6.7l-1.3,1.9c-2,3.1-5.1,5.3-8.7,6.2
	c-7.5,2-21.1,6.8-29.5,15.8c-3.6,3.8-0.9,10,4.3,10h0c2,0,3.8-1,4.9-2.6c3.4-5.1,13.8-16.1,38.7-15.8c28.2,0.3,39.5,11.5,43.2,16.3
	c1,1.4,2.6,2.2,4.3,2.2l0,0c4.7,0,7.1-5.6,3.9-9.1c-11-11.9-24.4-16.4-31.8-18c-3.7-0.8-7-3-9.2-6.1l0,0c-1.7-2.4-2.7-5.2-2.8-8.2
	c-0.4-10.5-0.6-35.9,6.5-44"/>
<path class="st2" d="M287.1,277.2v0.8c0,5.2-4.2,6.1-7.8,6.2l-70.3,1.6c-3.1,0.1-5.7-2.6-5.7-6v-0.1c0-3.3,2.4-6,5.5-6.1
	c0,0,39.3-1.1,69.8-1.9c0.6,1.8,2,3.3,3.8,4.4C283.9,277,285.9,277.3,287.1,277.2z"/>
<path class="st2" d="M324.5,202.8c0,0.8-0.2,1.7-0.6,2.5l-31.4,64.4c-0.8,1.6-2.2,2.6-3.7,3c-1.3,0.3-2.6,0.2-3.9-0.4
	c-2-1-3.2-3-3.2-5.2c0-0.3,0-0.5,0.1-0.8c0.1-0.6,0.3-1.1,0.5-1.7l31.4-64.4c1.4-2.8,4.8-4,7.6-2.6
	C323.3,198.7,324.5,200.7,324.5,202.8z"/>
<path class="st3" d="M70,196.5c0-0.1-0.1-0.3-0.1-0.4c-0.1-0.1-0.1-0.3-0.1-0.4"/>
<polyline class="st3" points="70,196.5 71,195.5 72.8,193.6 "/>
<path class="st2" d="M80.8,199c0,0,1.2,3.7,6,3.9"/>
<path class="st2" d="M59.8,207.7c-4.2,2.1-9-2.5-8.7-6.3c0.2-2.6-0.4-4.4-2.3-6.3c-0.1-0.1-0.2-0.3-0.4-0.4c-1.5-1.8-1.8-3.9-0.9-6
	c0.9-2,2.8-3.2,1.5-5.5c-0.6-1-1-2-1.3-3.1c-0.6-2.8,0.3-6,2.1-8.2c1.9-2.3,5.1-1.7,7.7-2.5c3.1-1,4.6-4.3,7.9-5.4
	c1.6-0.5,3.2-0.3,4.8,0.1c1.4,0.3,2.8,0.7,4.1,1.1c1.3,0.4,2.6,0.8,3.9,0.4c1.8-0.5,3.1-2.1,5-2.1c2,0,3.4,1.1,4.2,2.7
	c1.4,2.5,1.4,6,0.1,8.2c-1.3,2.2-4.1,3.1-6.4,3.6c-3,0.6-6.2,0.8-9.2,1.1l-1.8,0.4c0,0,0,0,0,0c-1.4,0.4-2.2,1.9-1.8,3.4
	c0.7,2.4,2.2,6.8,4.5,10.9"/>
<path class="st3" d="M72.8,208.2c0,0,9.3,6.8,14.7,3.1s2.3-14.8,2.3-14.8"/>
<path class="st2" d="M138.7,205.7c0,0-4-2.7-1.4-5.4s-0.8-6.4-0.8-6.4"/>
<path class="st2" d="M142.4,206.2c0,0,2.6-1.8,1-3.6c-1.7-1.8,0.6-4.2,0.6-4.2"/>
<g>
	<circle class="st1" cx="160.5" cy="128.9" r="51.7"/>
	<circle class="st1" cx="160.5" cy="128.9" r="28.4"/>
	<circle class="st1" cx="160.5" cy="128.9" r="4.9"/>
	<line class="st1" x1="170.6" y1="112.7" x2="163.1" y2="124.8"/>
	<line class="st1" x1="160.5" y1="100.5" x2="160.5" y2="105.6"/>
	<line class="st1" x1="188.9" y1="128.9" x2="184.1" y2="128.9"/>
	<line class="st1" x1="160.5" y1="157.3" x2="160.5" y2="152.4"/>
	<line class="st1" x1="132.1" y1="128.9" x2="136.4" y2="128.9"/>
</g>
<g>
	<circle class="st0" cx="210.1" cy="195.7" r="19.2"/>
	<path class="st8" d="M216.4,189.3c-0.3-0.6-0.6-1.2-1.1-1.7c-1.6-1.9-4.3-2.3-6.3-0.9c-1.4,0.9-2.1,2.3-2.3,3.8
		c-1.4-0.5-3.1-0.4-4.4,0.5c-2.4,1.6-3,4.9-1.2,7.2c1.4,1.8,3.7,3,5.8,3.7c1.1,0.4,2.3,0.6,3.4,0.7c0.6,0.1,3.9,0.5,4.3,0
		C216.6,199.2,218.1,193.2,216.4,189.3z"/>
</g>
<path class="st0" d="M298.8,192.2c0.6,1,1,2.1,1.2,3.3c0.9,4.2-0.6,8.8-3.8,11.7c-1.3,1.1-2.9,2-4.1,3.2c-0.9,0.8-1.6,1.8-2,3
	c-0.1,0.4-0.2,0.8-0.5,1.1c-0.7,0.8-1.5-0.5-2.1-0.7c-1-0.4-2.2-0.3-3.2,0.2c-3.5,1.5-7.6,1.2-10.9-0.7c-3.3-1.9-5.6-5.3-6.1-9
	c-0.5-3.7,0.8-7.7,3.4-10.4c2-2,4.5-3.3,7-4.6c2.2-1.2,4.4-2.4,6.8-3.1C290.2,184.5,296.1,187.3,298.8,192.2z"/>
<g>
	<circle class="st8" cx="276.3" cy="204.1" r="2.7"/>
	<circle class="st8" cx="283.6" cy="200.2" r="2.7"/>
	<circle class="st8" cx="290.3" cy="196.6" r="2.7"/>
</g>
<path class="st1" d="M208.6,109.9c0,0,17.7,54.6,85.6,51.7c22.6-2.8,49.5,0,73.4,31.5c36.4,47.9,21.8,101.4,5.2,135.3"/>
<line class="st7" x1="29.5" y1="441.5" x2="435.7" y2="441.5"/>
<g class="st9">
	<g>
		<g>
			<g>
				<g>
					<g>
						<g>
							<g>
								<path d="M380.9,49.5h8.6c0.5,0,0.9-0.4,0.9-0.9s-0.4-0.9-0.9-0.9h-8.6c-0.5,0-0.9,0.4-0.9,0.9S380.5,49.5,380.9,49.5z"/>
							</g>
						</g>
					</g>
				</g>
			</g>
		</g>
		<g>
			<g>
				<g>
					<g>
						<g>
							<g>
								<path d="M384.4,92.7h1.7c0.5,0,0.9-0.4,0.9-0.9s-0.4-0.9-0.9-0.9h-1.7c-0.5,0-0.9,0.4-0.9,0.9S383.9,92.7,384.4,92.7z"/>
							</g>
						</g>
					</g>
				</g>
			</g>
		</g>
		<g>
			<g>
				<g>
					<g>
						<path d="M394.7,96.1h-19c-2.4,0-4.3-1.9-4.3-4.3V48.7c0-2.4,1.9-4.3,4.3-4.3h19c2.4,0,4.3,1.9,4.3,4.3c0,0.5-0.4,0.9-0.9,0.9
							s-0.9-0.4-0.9-0.9c0-1.4-1.2-2.6-2.6-2.6h-19c-1.4,0-2.6,1.2-2.6,2.6v43.1c0,1.4,1.2,2.6,2.6,2.6h19c1.4,0,2.6-1.2,2.6-2.6
							V76.1c0-0.5,0.4-0.9,0.9-0.9s0.9,0.4,0.9,0.9v15.7C399.1,94.2,397.1,96.1,394.7,96.1z"/>
					</g>
				</g>
			</g>
		</g>
	</g>
</g>
<g>
	<g>
		<g>
			<g>
				<path class="st10" d="M392.1,71.9c-0.1,0-0.1,0-0.2,0c-0.2-0.1-0.4-0.2-0.4-0.4V68h-2.9c-1,0-1.8-0.6-1.8-1.3V55.4
					c0-0.7,0.8-1.3,1.8-1.3H405c1,0,1.8,0.6,1.8,1.3v11.3c0,0.7-0.8,1.3-1.8,1.3h-7.8l-4.7,3.8C392.4,71.8,392.3,71.9,392.1,71.9z
					 M388.6,55c-0.3,0-0.6,0.2-0.6,0.4v11.3c0,0.2,0.3,0.4,0.6,0.4h3.5c0.3,0,0.6,0.2,0.6,0.4v2.8l3.8-3.1c0.1-0.1,0.3-0.1,0.4-0.1
					h8c0.3,0,0.6-0.2,0.6-0.4V55.4c0-0.2-0.3-0.4-0.6-0.4H388.6z"/>
			</g>
		</g>
	</g>
</g>
<g class="st9">
	<g>
		<g>
			<g>
				<g>
					<g>
						<g>
							<g>
								<path d="M510.3,131.9h8.6c0.5,0,0.9-0.4,0.9-0.9s-0.4-0.9-0.9-0.9h-8.6c-0.5,0-0.9,0.4-0.9,0.9S509.9,131.9,510.3,131.9z"/>
							</g>
						</g>
					</g>
				</g>
			</g>
		</g>
		<g>
			<g>
				<g>
					<g>
						<g>
							<g>
								<path d="M513.8,175.1h1.7c0.5,0,0.9-0.4,0.9-0.9s-0.4-0.9-0.9-0.9h-1.7c-0.5,0-0.9,0.4-0.9,0.9S513.3,175.1,513.8,175.1z"/>
							</g>
						</g>
					</g>
				</g>
			</g>
		</g>
		<g>
			<g>
				<g>
					<g>
						<path d="M524.1,178.5h-19c-2.4,0-4.3-1.9-4.3-4.3v-43.1c0-2.4,1.9-4.3,4.3-4.3h19c2.4,0,4.3,1.9,4.3,4.3
							c0,0.5-0.4,0.9-0.9,0.9s-0.9-0.4-0.9-0.9c0-1.4-1.2-2.6-2.6-2.6h-19c-1.4,0-2.6,1.2-2.6,2.6v43.1c0,1.4,1.2,2.6,2.6,2.6h19
							c1.4,0,2.6-1.2,2.6-2.6v-15.7c0-0.5,0.4-0.9,0.9-0.9s0.9,0.4,0.9,0.9v15.7C528.5,176.6,526.5,178.5,524.1,178.5z"/>
					</g>
				</g>
			</g>
		</g>
	</g>
</g>
<g>
	<g>
		<g>
			<g>
				<path class="st10" d="M521.5,154.3c-0.1,0-0.1,0-0.2,0c-0.2-0.1-0.4-0.2-0.4-0.4v-3.5H518c-1,0-1.8-0.6-1.8-1.3v-11.3
					c0-0.7,0.8-1.3,1.8-1.3h16.4c1,0,1.8,0.6,1.8,1.3v11.3c0,0.7-0.8,1.3-1.8,1.3h-7.8l-4.7,3.8
					C521.8,154.2,521.7,154.3,521.5,154.3z M518,137.4c-0.3,0-0.6,0.2-0.6,0.4v11.3c0,0.2,0.3,0.4,0.6,0.4h3.5
					c0.3,0,0.6,0.2,0.6,0.4v2.8l3.8-3.1c0.1-0.1,0.3-0.1,0.4-0.1h8c0.3,0,0.6-0.2,0.6-0.4v-11.3c0-0.2-0.3-0.4-0.6-0.4H518z"/>
			</g>
		</g>
	</g>
</g>
<g class="st9">
	<g>
		<g>
			<g>
				<g>
					<g>
						<g>
							<g>
								<path d="M482.3,22.2h8.6c0.5,0,0.9-0.4,0.9-0.9s-0.4-0.9-0.9-0.9h-8.6c-0.5,0-0.9,0.4-0.9,0.9S481.8,22.2,482.3,22.2z"/>
							</g>
						</g>
					</g>
				</g>
			</g>
		</g>
		<g>
			<g>
				<g>
					<g>
						<g>
							<g>
								<path d="M485.7,65.3h1.7c0.5,0,0.9-0.4,0.9-0.9c0-0.5-0.4-0.9-0.9-0.9h-1.7c-0.5,0-0.9,0.4-0.9,0.9
									C484.9,64.9,485.3,65.3,485.7,65.3z"/>
							</g>
						</g>
					</g>
				</g>
			</g>
		</g>
		<g>
			<g>
				<g>
					<g>
						<path d="M496.1,68.8h-19c-2.4,0-4.3-1.9-4.3-4.3V21.3c0-2.4,1.9-4.3,4.3-4.3h19c2.4,0,4.3,1.9,4.3,4.3c0,0.5-0.4,0.9-0.9,0.9
							c-0.5,0-0.9-0.4-0.9-0.9c0-1.4-1.2-2.6-2.6-2.6h-19c-1.4,0-2.6,1.2-2.6,2.6v43.1c0,1.4,1.2,2.6,2.6,2.6h19
							c1.4,0,2.6-1.2,2.6-2.6V48.8c0-0.5,0.4-0.9,0.9-0.9c0.5,0,0.9,0.4,0.9,0.9v15.7C500.4,66.9,498.5,68.8,496.1,68.8z"/>
					</g>
				</g>
			</g>
		</g>
	</g>
</g>
<g>
	<g>
		<g>
			<g>
				<path class="st10" d="M493.5,44.5c-0.1,0-0.1,0-0.2,0c-0.2-0.1-0.4-0.2-0.4-0.4v-3.5H490c-1,0-1.8-0.6-1.8-1.3V28.1
					c0-0.7,0.8-1.3,1.8-1.3h16.4c1,0,1.8,0.6,1.8,1.3v11.3c0,0.7-0.8,1.3-1.8,1.3h-7.8l-4.7,3.8C493.8,44.5,493.6,44.5,493.5,44.5z
					 M490,27.6c-0.3,0-0.6,0.2-0.6,0.4v11.3c0,0.2,0.3,0.4,0.6,0.4h3.5c0.3,0,0.6,0.2,0.6,0.4V43l3.8-3.1c0.1-0.1,0.3-0.1,0.4-0.1h8
					c0.3,0,0.6-0.2,0.6-0.4V28.1c0-0.2-0.3-0.4-0.6-0.4H490z"/>
			</g>
		</g>
	</g>
</g>
<g class="st9">
	<g>
		<g>
			<g>
				<g>
					<g>
						<g>
							<g>
								<path d="M471.8,240.9h8.6c0.5,0,0.9-0.4,0.9-0.9c0-0.5-0.4-0.9-0.9-0.9h-8.6c-0.5,0-0.9,0.4-0.9,0.9
									C471,240.5,471.4,240.9,471.8,240.9z"/>
							</g>
						</g>
					</g>
				</g>
			</g>
		</g>
		<g>
			<g>
				<g>
					<g>
						<g>
							<g>
								<path d="M475.3,284h1.7c0.5,0,0.9-0.4,0.9-0.9c0-0.5-0.4-0.9-0.9-0.9h-1.7c-0.5,0-0.9,0.4-0.9,0.9
									C474.4,283.6,474.8,284,475.3,284z"/>
							</g>
						</g>
					</g>
				</g>
			</g>
		</g>
		<g>
			<g>
				<g>
					<g>
						<path d="M485.7,287.5h-19c-2.4,0-4.3-1.9-4.3-4.3V240c0-2.4,1.9-4.3,4.3-4.3h19c2.4,0,4.3,1.9,4.3,4.3c0,0.5-0.4,0.9-0.9,0.9
							c-0.5,0-0.9-0.4-0.9-0.9c0-1.4-1.2-2.6-2.6-2.6h-19c-1.4,0-2.6,1.2-2.6,2.6v43.1c0,1.4,1.2,2.6,2.6,2.6h19
							c1.4,0,2.6-1.2,2.6-2.6v-15.7c0-0.5,0.4-0.9,0.9-0.9c0.5,0,0.9,0.4,0.9,0.9v15.7C490,285.5,488,287.5,485.7,287.5z"/>
					</g>
				</g>
			</g>
		</g>
	</g>
</g>
<g>
	<g>
		<g>
			<g>
				<path class="st10" d="M483,263.2c-0.1,0-0.1,0-0.2,0c-0.2-0.1-0.4-0.2-0.4-0.4v-3.5h-2.9c-1,0-1.8-0.6-1.8-1.3v-11.3
					c0-0.7,0.8-1.3,1.8-1.3h16.4c1,0,1.8,0.6,1.8,1.3V258c0,0.7-0.8,1.3-1.8,1.3h-7.8l-4.7,3.8C483.3,263.2,483.2,263.2,483,263.2z
					 M479.5,246.3c-0.3,0-0.6,0.2-0.6,0.4V258c0,0.2,0.3,0.4,0.6,0.4h3.5c0.3,0,0.6,0.2,0.6,0.4v2.8l3.8-3.1
					c0.1-0.1,0.3-0.1,0.4-0.1h8c0.3,0,0.6-0.2,0.6-0.4v-11.3c0-0.2-0.3-0.4-0.6-0.4H479.5z"/>
			</g>
		</g>
	</g>
</g>
<g>
	<g>
		<path class="st11" d="M329.7,211.6c0,0,0.6-0.6,1.7-1.8"/>
		<path class="st12" d="M334.7,206c11.4-13.2,38.9-48.7,48-95.7"/>
		<path class="st11" d="M383.2,107.8c0.1-0.8,0.3-1.6,0.4-2.5"/>
	</g>
</g>
<path class="st13" d="M322.7,227.4c0,0,154.9-84.3,162.3-150.2"/>
<path class="st13" d="M324.4,232.5c0,0,115.8-18.6,173.8-79.6"/>
<path class="st13" d="M322.7,237.3c0,0,47.5,30,131.3,24.4"/>
</svg>
