<?xml version="1.0" encoding="utf-8"?>
<!-- Generator: Adobe Illustrator 25.4.1, SVG Export Plug-In . SVG Version: 6.00 Build 0)  -->
<svg version="1.1" id="Layer_1" xmlns="http://www.w3.org/2000/svg" xmlns:xlink="http://www.w3.org/1999/xlink" x="0px" y="0px"
	 viewBox="0 0 24 24" style="enable-background:new 0 0 24 24;" xml:space="preserve">
<style type="text/css">
	.st0{fill:none;stroke:#FBBC05;stroke-width:1.5;stroke-linecap:round;stroke-linejoin:round;stroke-miterlimit:10;}
</style>
<path class="st0" d="M8.5,19H8c-4,0-6-1-6-6V8c0-4,2-6,6-6h8c4,0,6,2,6,6v5c0,4-2,6-6,6h-0.5c-0.3,0-0.6,0.2-0.8,0.4l-1.5,2
	c-0.7,0.9-1.7,0.9-2.4,0l-1.5-2C9.1,19.1,8.8,19,8.5,19z"/>
<path class="st0" d="M8,8.7l-2,2l2,2"/>
<path class="st0" d="M16,8.7l2,2l-2,2"/>
<path class="st0" d="M13,8.4L11,13"/>
</svg>
