<?xml version="1.0" encoding="utf-8"?>
<!-- Generator: Adobe Illustrator 25.4.1, SVG Export Plug-In . SVG Version: 6.00 Build 0)  -->
<svg version="1.1" id="Layer_2" xmlns="http://www.w3.org/2000/svg" xmlns:xlink="http://www.w3.org/1999/xlink" x="0px" y="0px"
	 viewBox="0 0 787.8 564.7" style="enable-background:new 0 0 787.8 564.7;" xml:space="preserve">
<style type="text/css">
	.st0{fill:#3FBDF1;}
	.st1{fill:#2E2E2E;}
	.st2{fill:#FFFFFF;}
	.st3{fill:none;stroke:#000000;stroke-width:4.0066;stroke-miterlimit:10;}
	.st4{fill:none;stroke:#000000;stroke-width:4.0066;stroke-linecap:round;stroke-linejoin:round;stroke-miterlimit:10;}
	.st5{fill:none;stroke:#000000;stroke-width:4.0066;stroke-linecap:round;stroke-miterlimit:10;}
	.st6{fill:none;stroke:#000000;stroke-width:4.0066;stroke-linecap:square;stroke-linejoin:round;stroke-miterlimit:10;}
	.st7{fill:none;stroke:#000000;stroke-width:3;stroke-miterlimit:10;}
	.st8{fill:none;stroke:#000000;stroke-width:3;stroke-linecap:round;stroke-linejoin:round;stroke-miterlimit:10;}
	.st9{fill:none;stroke:#000000;stroke-width:3;stroke-linecap:round;stroke-miterlimit:10;}
	.st10{fill:none;stroke:#000000;stroke-width:3;stroke-linecap:square;stroke-linejoin:round;stroke-miterlimit:10;}
	.st11{opacity:8.000000e-02;}
	.st12{fill:none;stroke:#000000;stroke-width:3;stroke-linecap:round;stroke-linejoin:round;}
	.st13{opacity:8.000000e-02;fill:none;stroke:#000000;stroke-width:3;stroke-linecap:round;stroke-linejoin:round;}
	.st14{fill:#3FBDF1;stroke:#000000;stroke-width:3;stroke-linecap:round;stroke-linejoin:round;stroke-miterlimit:10;}
	.st15{opacity:0.15;}
</style>
<polygon class="st0" points="229.1,207.2 231.7,206.1 253.6,206.6 255.8,208.8 256.5,232.6 255.5,233.9 249.1,228.1 230,228 
	228.1,224.7 "/>
<path class="st1" d="M282.3,308.2c0,0-1.3,18.3-21.6,16.6c0,0,7.1,18.2,12.2,21.4l25.6,16.2l6.1-28.6L282.3,308.2z"/>
<path class="st2" d="M260.6,376.9l-53.5,77.5l-59,0.2v-1.1c0-5.2,4.1-9.6,9.3-9.9l16.3-1.1l47.5-85.8c1.6-2.9,3.5-5.6,5.9-7.9
	c11.3-11.1,29.1-13.4,43-4.6l0.4,0.3l27.3,17.3l-19.4,46.8L253.7,387"/>
<path class="st0" d="M355,275.1l0,0.1c0,5.8-4.7,10.4-10.4,10.4c-1.8,0-3.6-0.5-5.1-1.3c-0.4-0.2-0.9-0.5-1.3-0.8
	c-0.7-0.5-0.6-1.7,0.2-2.1c2.1-1.3,4.2-3.2,4.9-5.5c0.2-0.7,0.3-1.5,0.2-2.2c-0.2-1.9-1.2-3.7-3-4.5c-0.2-0.1-0.5-0.2-0.8-0.2
	c-0.8-0.1-1.9-0.1-2.1,0.5c1.3-2.8,1.6-6.1,0.9-9c-0.4-1.8-1.3-3.6-2.5-5.1c0,2.4-1.9,4-4.2,3.7c-4.1-0.5-4.6-4.5-4.6-4.5
	c0,0,0,0,0,0.1c-2.2,4.3-7.4,4-11,1.7c-1.3-0.8-2.4-1.8-3.2-3.1c-0.7-4.7,3.5-8.8,7.9-9.1c0.3-2.9,2.7-5.9,5.6-5.9
	c2.1,0,4,1.2,4.9,2.9c0.1,0.1,0.1,0.3,0.2,0.4c1.3-1.6,3.4-3.3,5.5-3.3c3.1,0,5.6,2,6.6,4.7c0-0.2,1.9-0.9,2.1-0.9
	c0.8-0.2,1.6-0.3,2.4-0.3c2.9,0,5.5,1.7,6.9,4c0.1,0.4,0.1,0.8,0.1,1.3c0,1.3-0.3,2.5-0.9,3.6c0.7,0.2,1.2,0.6,1.8,1.1
	c1.1,0.9,1.8,2.3,1.9,3.8c0,0,0,0,0,0c0,0.1,0,0.3,0,0.4c0,1.1-0.3,2.2-0.9,3.1c0.7,0.3,1.3,0.6,1.9,1c1.7,1.2,3,3.1,3.3,5.3
	c0.1,0.5,0.1,0.9,0.1,1.4C362.3,271,359.1,274.5,355,275.1z"/>
<path class="st0" d="M355,275.1l0,0.1c0,5.8-4.7,10.4-10.4,10.4c-1.8,0-3.6-0.5-5.1-1.3c2.1-1.3,4.2-3.2,4.9-5.5
	c0.5-1.7,0.2-3.7-0.9-5.1c-0.2-1.9-1.2-3.7-3-4.5c-0.2-0.1-0.5-0.2-0.8-0.2c0.5-2.9,0.1-5.9-1.3-8.6c-0.4-1.8-1.3-3.6-2.5-5.1
	c0,2.4-1.9,4-4.2,3.7c-4.1-0.5-4.6-4.5-4.6-4.5c0,0,0,0,0,0.1c-2.2,4.3-7.4,4-11,1.7c-1.3-0.8-2.4-1.8-3.2-3.1
	c-0.7-4.7,3.5-8.8,7.9-9.1c0.3-2.9,2.7-5.9,5.6-5.9c2.1,0,4,1.2,4.9,2.9c0.1,0.1,0.1,0.3,0.2,0.4c1.3-1.6,3.4-3.3,5.5-3.3
	c3.1,0,5.6,2,6.6,4.7c0-0.2,1.9-0.9,2.1-0.9c0.8-0.2,1.6-0.3,2.4-0.3c2.9,0,5.5,1.7,6.9,4c0.1,0.4,0.1,0.8,0.1,1.3
	c0,1.3-0.3,2.5-0.9,3.6c0.7,0.2,1.2,0.6,1.8,1.1c-0.1,0.6-0.4,1.3-0.7,1.9c1,0.4,1.9,1.1,2.6,1.9c0,0,0,0,0,0c0,0.1,0,0.3,0,0.4
	c0,1.1-0.3,2.2-0.9,3.1c0.7,0.3,1.3,0.6,1.9,1c-0.2,0.7-0.4,1.3-0.8,1.9c1.7,0.6,3.2,1.9,4.2,3.4c0.1,0.5,0.1,0.9,0.1,1.4
	C362.3,271,359.1,274.5,355,275.1z"/>
<path class="st0" d="M328.1,551.6h-67.5v-1.3c0-5.4,4.2-9.8,9.6-10l15.9-0.6h37.6L328.1,551.6z"/>
<path class="st0" d="M207.1,454.5l-59-0.1V453c0-5.4,4.2-9.8,9.6-10l15.9-0.6L215,443L207.1,454.5z"/>
<line class="st3" x1="330.2" y1="454.1" x2="330" y2="453.9"/>
<path class="st3" d="M464.7,454C464.8,454,464.8,454,464.7,454l-13.5,0.1"/>
<path class="st3" d="M308.4,454.1c0-0.1,0-0.1-0.1-0.2"/>
<path class="st3" d="M297.8,407.5c-2.1-13.4-1.7-26.9-0.6-40.4c1.9-24.1,9.2-48.3,28.9-63.9c0.5-0.4,1-0.8,1.6-1.2"/>
<path class="st3" d="M453.2,454"/>
<path class="st0" d="M250.4,314L250.4,314c-2.1,0-3.9-1.3-4.5-3.3l-4.5-13.9l-4-13.2l-5.2-16.9c-0.9-2.8,1.3-5.7,4.3-5.6h0
	c1.8,0.1,3.4,1.2,4,3l7.2,22l7.3,21.8C255.9,310.9,253.6,314,250.4,314z"/>
<path class="st3" d="M325.2,254.5"/>
<path class="st3" d="M319.3,262.6c0,0,5.9,0.6,6.9,5.7"/>
<path class="st3" d="M316.5,277.6c-1,0.2-2.8,0.2-4.2-0.1c-1.1-0.3-1.6-1.6-0.9-2.5c1.4-2,2.9-4,4.4-5.8c0.2-0.3,0.4-0.5,0.5-0.9
	c0,0-0.1-6.3,1.6-10.9"/>
<ellipse transform="matrix(0.2057 -0.9786 0.9786 0.2057 -7.5688 526.4157)" cx="320.5" cy="267.9" rx="1.8" ry="1.6"/>
<path class="st4" d="M352.2,294.2c-2.2-6.3-3.2-9.6-3.2-9.6"/>
<line class="st3" x1="328.1" y1="292.1" x2="328.1" y2="314"/>
<path class="st4" d="M314.3,277.7c0,0,1.5,12.6,7.6,15c6.1,2.4,12.2-5,12.2-5"/>
<path class="st4" d="M315.6,283.4c0,0,2.4,1.9,5.5,0.6"/>
<path class="st5" d="M330.9,241c0-1-0.3-1.9-0.7-2.8c-1-1.7-2.8-2.9-4.9-2.9c-3.1,0-5.7,2.5-5.7,5.7"/>
<path class="st4" d="M327.8,249.3c0-2.8-1.4-5.4-3.7-6.9c-5.7-3.8-13.9,2-12.3,8.6c0.6,2.3,2.2,4.1,4.2,5.3c3.6,2.3,8.9,2.6,11-1.7
	c0,0,0,0,0-0.1c0,0,0.5,4,4.6,4.5c2.3,0.3,4.2-1.3,4.2-3.7c3.3,4,3.7,9.5,1.7,14.1c0.4-0.8,2.4-0.5,3-0.3c2.5,1.1,3.6,4.2,2.8,6.7
	c-0.7,2.3-2.7,4.2-4.9,5.5c-0.8,0.5-0.9,1.6-0.2,2.1c1.7,1.3,3.9,2.1,6.3,2.1c5.8,0,10.4-4.7,10.4-10.4l0-0.1c4.1-0.5,7.3-4,7.3-8.3
	c0-3.6-2.2-6.6-5.4-7.8c0.6-0.9,0.9-2,0.9-3.1c0-2.4-1.5-4.5-3.7-5.3c-0.6-0.2-1.3-0.4-2-0.4"/>
<path class="st6" d="M330.9,238c1.3-1.8,2.6-2.7,4.9-2.7c3.1,0,5.6,2,6.6,4.7c-0.1-0.2,1.9-0.9,2.1-1c0.8-0.2,1.6-0.3,2.4-0.3
	c4.4,0.1,8.1,3.8,8.1,8.2c0,1.3-0.3,2.5-0.9,3.6"/>
<path class="st0" d="M355,275.1l0,0.1c0,5.8-4.7,10.4-10.4,10.4c-1.8,0-3.6-0.5-5.1-1.3c-0.4-0.2-0.9-0.5-1.3-0.8
	c-0.7-0.5-0.6-1.7,0.2-2.1c2.1-1.3,4.2-3.2,4.9-5.5c0.2-0.7,0.3-1.5,0.2-2.2c-0.2-1.9-1.2-3.7-3-4.5c-0.2-0.1-0.5-0.2-0.8-0.2
	c-0.8-0.1-1.9-0.1-2.1,0.5c1.3-2.8,1.6-6.1,0.9-9c-0.4-1.8-1.3-3.6-2.5-5.1c0,2.4-1.9,4-4.2,3.7c-4.1-0.5-4.6-4.5-4.6-4.5
	c0,0,0,0,0,0.1c-2.2,4.3-7.4,4-11,1.7c-1.3-0.8-2.4-1.8-3.2-3.1c-0.7-4.7,3.5-8.8,7.9-9.1c0.3-2.9,2.7-5.9,5.6-5.9
	c2.1,0,4,1.2,4.9,2.9c0.1,0.1,0.1,0.3,0.2,0.4c1.3-1.6,3.4-3.3,5.5-3.3c3.1,0,5.6,2,6.6,4.7c0-0.2,1.9-0.9,2.1-0.9
	c0.8-0.2,1.6-0.3,2.4-0.3c2.9,0,5.5,1.7,6.9,4c0.1,0.4,0.1,0.8,0.1,1.3c0,1.3-0.3,2.5-0.9,3.6c0.7,0.2,1.2,0.6,1.8,1.1
	c1.1,0.9,1.8,2.3,1.9,3.8c0,0,0,0,0,0c0,0.1,0,0.3,0,0.4c0,1.1-0.3,2.2-0.9,3.1c0.7,0.3,1.3,0.6,1.9,1c1.7,1.2,3,3.1,3.3,5.3
	c0.1,0.5,0.1,0.9,0.1,1.4C362.3,271,359.1,274.5,355,275.1z"/>
<path class="st0" d="M355,275.1l0,0.1c0,5.8-4.7,10.4-10.4,10.4c-1.8,0-3.6-0.5-5.1-1.3c2.1-1.3,4.2-3.2,4.9-5.5
	c0.5-1.7,0.2-3.7-0.9-5.1c-0.2-1.9-1.2-3.7-3-4.5c-0.2-0.1-0.5-0.2-0.8-0.2c0.5-2.9,0.1-5.9-1.3-8.6c-0.4-1.8-1.3-3.6-2.5-5.1
	c0,2.4-1.9,4-4.2,3.7c-4.1-0.5-4.6-4.5-4.6-4.5c0,0,0,0,0,0.1c-2.2,4.3-7.4,4-11,1.7c-1.3-0.8-2.4-1.8-3.2-3.1
	c-0.7-4.7,3.5-8.8,7.9-9.1c0.3-2.9,2.7-5.9,5.6-5.9c2.1,0,4,1.2,4.9,2.9c0.1,0.1,0.1,0.3,0.2,0.4c1.3-1.6,3.4-3.3,5.5-3.3
	c3.1,0,5.6,2,6.6,4.7c0-0.2,1.9-0.9,2.1-0.9c0.8-0.2,1.6-0.3,2.4-0.3c2.9,0,5.5,1.7,6.9,4c0.1,0.4,0.1,0.8,0.1,1.3
	c0,1.3-0.3,2.5-0.9,3.6c0.7,0.2,1.2,0.6,1.8,1.1c-0.1,0.6-0.4,1.3-0.7,1.9c1,0.4,1.9,1.1,2.6,1.9c0,0,0,0,0,0c0,0.1,0,0.3,0,0.4
	c0,1.1-0.3,2.2-0.9,3.1c0.7,0.3,1.3,0.6,1.9,1c-0.2,0.7-0.4,1.3-0.8,1.9c1.7,0.6,3.2,1.9,4.2,3.4c0.1,0.5,0.1,0.9,0.1,1.4
	C362.3,271,359.1,274.5,355,275.1z"/>
<path class="st3" d="M325.2,254.5"/>
<path class="st7" d="M319.3,262.6c0,0,5.9,0.6,6.9,5.7"/>
<ellipse transform="matrix(0.2057 -0.9786 0.9786 0.2057 -7.5688 526.4157)" cx="320.5" cy="267.9" rx="1.8" ry="1.6"/>
<path class="st8" d="M315.6,283.4c0,0,2.4,1.9,5.5,0.6"/>
<g>
	<path class="st1" d="M441.7,422.1c-4.9,13.7-13.9,15.9-24.5,15.2c-5.5-7.2-12.1-17.1-17.3-24.4c-6.1-8.6-12.3-17.2-18.5-25.7
		c-1.6-2.2-3.1-4.4-4.7-6.6v33c0,1.7-0.1,3.4-0.3,5.1c-30,25.7-73-6.5-78.8-11.2h0c-0.4-0.3-0.7-0.5-0.7-0.5
		c-2.8-20.3,0.2-35.7,0.9-47.3c0.9-15.5,3.8-20.5,6.3-25.2l1.1-2.7c2-3.7,1.9-4.6,2.2-4.8c0,0-0.1-0.7-0.1-0.7s1-1.2,1-1.2
		c5.8-9.6,10.3-17.6,19.9-23.3c-3.3,2.5-5.6,8.4-2.1,11.6c4.1,3.8,9.7-0.7,13-3.3c4.2-3.2,8.1-7.1,11.2-11.5c1-1.4,2.2-2.9,2-4.8
		c7-0.1,12.8,2.4,20,6.5c9.1,5.3,16.3,13.2,21.2,22.4L441.7,422.1z"/>
	<path class="st7" d="M304.8,454.1h3.4h21.6h6.3c20.6,0,37.7-15.6,40.2-35.5c0.2-1.7,0.3-3.4,0.3-5.1v-33"/>
	<path class="st7" d="M316.2,406.8l-18.4,0.6h-0.3h0l-11.6,0.2c-2.6,0.1-5.2,0.4-7.6,0.9c-20.7,4.5-33.9,25.2-29.5,45.7
		c0.6,3,1.6,5.9,3,8.8l34.3,76.5l-15.9,0.6c-5.4,0.2-9.6,4.6-9.6,10v1.3h67.5l-4.4-11.9L292.4,454"/>
	<line class="st7" x1="260.6" y1="376.9" x2="207.1" y2="454.5"/>
	<line class="st7" x1="278.3" y1="408.6" x2="253.7" y2="387"/>
	<line class="st7" x1="270.4" y1="344.5" x2="254.4" y2="311.8"/>
	<path class="st7" d="M352.2,294.2c4.9-0.1,9.9,0.8,14.6,3c10.6,4.9,19.6,13.1,25.4,23.3c6.5,11.3,11.7,23.5,17.5,35.1
		c7.2,14.6,14.4,29.2,21.6,43.9c3.5,7.1,7,14.1,10.4,21.2l7.4,15c1.5,2.5,3.7,4.6,6.2,6c2.5,1.4,5.4,2.2,8.3,2.2
		c6,0,11.4,3.5,13.9,8.9l0.6,1.4h-17.8"/>
	<path class="st7" d="M346.5,326.3c-0.4,14.2,11.8,28.6,11.8,28.6c0,0,0,0,0,0c6.1,8.6,12.3,17.1,18.4,25.7c1.6,2.2,3.2,4.4,4.7,6.6
		c6.2,8.6,12.3,17.1,18.5,25.7c5.3,7.4,10.2,15.1,15.7,22.4c1.4,1.9,2.9,3.7,4.4,5.5c2,2.3,4,4.9,6.3,6.7c2.4,1.9,5.1,3.6,7.6,5.5
		c2,1.8,3.9,3.7,5.2,6.1c1.5,2.6,1.7,5.6,3,8.2c2.3,4.6,7.9,3.8,9.9-0.6c2.7-6.1-3.2-19.3-3.2-19.3"/>
	<path class="st7" d="M297.7,361.8l-27.3-17.3l-0.4-0.3c-13.9-8.8-31.7-6.5-43,4.6c-2.3,2.3-4.3,5-5.9,7.9l-47.5,85.8l-16.3,1.1
		c-5.2,0.4-9.3,4.7-9.3,9.9v1.1"/>
	<path class="st7" d="M247.6,286.1c2.3,0.4,3.1,0.3,4.7,0.6c0.6,0.1,0.9-0.6,0.5-1l-5.4-5.2c-1.5-1.3-2.5-3-2.9-4.9l0-0.2
		c0.4-1.3,1.5-2.3,2.8-2.6c1.1-0.2,2.3,0,3.4,0.4c1.8,0.7,4.1,1.3,6.4,2.1c3.1,1.1,5.7,3.3,7.4,6.1l0.2,0.4
		c6.5,11.2,13.9,21.9,22.1,31.9l17.5,21.6"/>
	<path class="st7" d="M250.4,314L250.4,314c-2.1,0-3.9-1.3-4.5-3.3l-4.5-13.9l-4-13.2l-5.2-16.9c-0.9-2.8,1.3-5.7,4.3-5.6h0
		c1.8,0.1,3.4,1.2,4,3l7.2,22l7.3,21.8C255.9,310.9,253.6,314,250.4,314z"/>
	<path class="st7" d="M231.9,292.7C231.9,292.7,231.9,292.7,231.9,292.7c-1.1-0.1-2.2-0.3-3.2-1c-0.8-0.6-1.4-1.5-1.7-2.4
		c-0.4-1.5-0.1-3.1,0.8-4.3c0.7-0.9,1.7-1.5,2.7-1.8c1.4-0.4,2.9-0.4,4.2,0.1c1.3,0.5,2.7,1.9,3.4,3.1"/>
	<path class="st7" d="M234.7,301.7c-1.1-0.1-2.3-0.3-3.2-1c-0.8-0.6-1.4-1.4-1.8-2.4c-0.5-1.4-0.2-3.1,0.7-4.3
		c0.7-0.9,1.6-1.5,2.7-1.9c1.4-0.5,2.9-0.5,4.2,0c1.4,0.5,2.7,1.3,3.4,2.6"/>
	<path class="st7" d="M243.4,302.9c-0.7-1.1-2.1-1.9-3.4-2.2c-1.3-0.3-2.6-0.2-3.8,0.4c-0.9,0.4-1.8,1.1-2.3,1.9
		c-0.7,1.2-0.8,2.7-0.3,4c0.4,0.8,1,1.5,1.8,2l0.6,0.3c0,0,3.9,1.6,10.3,2.3"/>
	<path class="st7" d="M352.2,293.8c0.2,1.8-1,3.3-2,4.8c-3,4.4-7,8.3-11.2,11.5c-3.4,2.6-8.9,7.1-13,3.3c-3.5-3.2-1.2-9.2,2.1-11.6
		c0,0,0,0,0,0"/>
	<path class="st7" d="M316.5,277.6c-1,0.2-2.8,0.2-4.2-0.1c-1.1-0.3-1.6-1.6-0.9-2.5c1.4-2,2.9-4,4.4-5.8c0.2-0.3,0.4-0.5,0.5-0.9
		c0,0-0.1-6.3,1.6-10.9"/>
	<path class="st8" d="M352.2,294.2c-2.2-6.3-3.2-9.6-3.2-9.6"/>
	<line class="st7" x1="328.1" y1="292.1" x2="328.1" y2="314"/>
	<path class="st8" d="M314.3,277.7c0,0,1.5,12.6,7.6,15c6.1,2.4,12.2-5,12.2-5"/>
	<path class="st9" d="M330.9,241c0-1-0.3-1.9-0.7-2.8c-1-1.7-2.8-2.9-4.9-2.9c-3.1,0-5.7,2.5-5.7,5.7"/>
	<path class="st8" d="M327.8,249.3c0-2.8-1.4-5.4-3.7-6.9c-5.7-3.8-13.9,2-12.3,8.6c0.6,2.3,2.2,4.1,4.2,5.3c3.6,2.3,8.9,2.6,11-1.7
		c0,0,0,0,0-0.1c0,0,0.5,4,4.6,4.5c2.3,0.3,4.2-1.3,4.2-3.7c3.3,4,3.7,9.5,1.7,14.1c0.4-0.8,2.4-0.5,3-0.3c2.5,1.1,3.6,4.2,2.8,6.7
		c-0.7,2.3-2.7,4.2-4.9,5.5c-0.8,0.5-0.9,1.6-0.2,2.1c1.7,1.3,3.9,2.1,6.3,2.1c5.8,0,10.4-4.7,10.4-10.4l0-0.1
		c4.1-0.5,7.3-4,7.3-8.3c0-3.6-2.2-6.6-5.4-7.8c0.6-0.9,0.9-2,0.9-3.1c0-2.4-1.5-4.5-3.7-5.3c-0.6-0.2-1.3-0.4-2-0.4"/>
	<path class="st10" d="M330.9,238c1.3-1.8,2.6-2.7,4.9-2.7c3.1,0,5.6,2,6.6,4.7c-0.1-0.2,1.9-0.9,2.1-1c0.8-0.2,1.6-0.3,2.4-0.3
		c4.4,0.1,8.1,3.8,8.1,8.2c0,1.3-0.3,2.5-0.9,3.6"/>
</g>
<g class="st11">
	<line class="st5" x1="521.1" y1="454.1" x2="446.2" y2="454.1"/>
	<g>
		<path class="st9" d="M281.4,454.2c1.8,0,20.2,0,22,0c7.2,0,14.5,0,21.7-0.1c36-0.1,72.1-0.1,104.8-0.2"/>
		<path class="st9" d="M446.2,453.9c10.9,0,17,0,26.9,0c16.1,0,30.7,0.1,43,0.1"/>
		<path class="st9" d="M94.1,454.8c0.9,0,67.2-0.3,149.7-0.5"/>
	</g>
	<path class="st12" d="M505.4,452.2c54.8-24,79.8-87.9,55.8-142.7c-17.2-39.4-56.1-64.8-99.1-64.9h-27.3
		C410.9,152,316.3,96.3,223.6,120.2S75.2,238.7,99.2,331.3c9.4,36.3,30.3,68.6,59.6,92.1"/>
</g>
<path class="st13" d="M758.4,235.2c0.7-3,1.1-6.1,1.1-9.3c0-23.6-20-42.8-44.8-42.8c-17,0-31.8,9.1-39.4,22.4
	c-4.5-2.4-9.8-3.8-15.3-3.8c-17.5,0-31.8,13.6-31.8,30.4c0,0.4,0,0.9,0,1.3h-0.1c-15,0-27.1,11.6-27.1,25.9
	c0,14.3,12.1,25.9,27.1,25.9h120.5c15,0,27.1-11.6,27.1-25.9C775.9,248.3,768.6,238.9,758.4,235.2z"/>
<path class="st13" d="M149.5,61.4c-3.4,0-7.6-0.1-12.1,0c0.8-2.7,1.3-5.5,1.3-8.4c0-20-21-36.3-47-36.3c-25.2,0-45.8,15.4-46.9,34.6
	C29.5,54.4,18.3,65,18.3,77.7c0,15.1,15.8,27.2,35.4,27.3c27.3,0.1,48.4,0,64.3-0.4c9.1,0.2,19.5,0.4,31.5,0.4
	c15.6,0,28.3-9.8,28.3-21.8C177.7,71.1,165.1,61.4,149.5,61.4z"/>
<path d="M230,234.9h19.3c0.6,0,1.1-0.5,1.1-1.1l0,0c0-0.6-0.5-1.1-1.1-1.1H229c-0.6,0-1.2,0.2-1.6,0.7l-2.3,2.5
	c-0.4,0.4-1,0.1-1-0.4v-22.3c0-0.6-0.5-1.1-1.1-1.1l0,0c-0.6,0-1.1,0.5-1.1,1.1v26.1c0,0.7,0.6,1.3,1.3,1.3l0,0
	c0.4,0,0.7-0.1,0.9-0.4l4.3-4.5C228.8,235.2,229.4,234.9,230,234.9z"/>
<path d="M231.6,229.4h17.1c0.6,0,1.2,0.2,1.6,0.7l4.5,4.5c0.2,0.2,0.6,0.4,0.9,0.4l0,0c0.7,0,1.3-0.6,1.3-1.3v-24.1
	c0-2.3-1.9-4.1-4.1-4.1h-21.3c-2.3,0-4.1,1.9-4.1,4.1v15.7C227.4,227.5,229.3,229.4,231.6,229.4z M232.1,207.6h20.3
	c1.3,0,2.4,1.1,2.4,2.4v21.4l-3.6-3.6c-0.4-0.4-1-0.7-1.6-0.7h-17.5c-1.3,0-2.4-1.1-2.4-2.4V210
	C229.7,208.7,230.8,207.6,232.1,207.6z"/>
<path d="M235.3,213.7h14c0.6,0,1.1,0.5,1.1,1.1l0,0c0,0.6-0.5,1.1-1.1,1.1h-14c-0.6,0-1.1-0.5-1.1-1.1l0,0
	C234.2,214.2,234.7,213.7,235.3,213.7z"/>
<path d="M235.3,218.7h14c0.6,0,1.1,0.5,1.1,1.1l0,0c0,0.6-0.5,1.1-1.1,1.1h-14c-0.6,0-1.1-0.5-1.1-1.1l0,0
	C234.2,219.2,234.7,218.7,235.3,218.7z"/>
<g>
	<path class="st8" d="M638.7,422c10.5-10.5,10.5-27.1,0-37.6"/>
	<path class="st8" d="M629.8,412c4.8-4.8,4.8-13.1-0.5-18.2"/>
	<path class="st8" d="M585,384.4c-10.5,10.5-10.5,27.1,0,37.6"/>
	<path class="st8" d="M593.9,394.3c-4.8,4.8-4.8,13.1,0.5,18.2"/>
	<circle class="st14" cx="611.8" cy="403.2" r="5.4"/>
	<line class="st8" x1="590.4" y1="454.2" x2="633.3" y2="454.2"/>
	<line class="st8" x1="603.8" y1="432.7" x2="619.9" y2="432.7"/>
	<line class="st8" x1="613.4" y1="408.5" x2="625.2" y2="454.2"/>
	<line class="st8" x1="598.4" y1="454.2" x2="610.2" y2="408.3"/>
</g>
<g class="st15">
	<path class="st8" d="M82.4,432.2c7.4-7.4,7.4-19.2,0-26.6"/>
	<path class="st8" d="M76.1,425.2c3.4-3.4,3.4-9.3-0.4-12.9"/>
	<path class="st8" d="M44.4,405.6c-7.4,7.4-7.4,19.2,0,26.6"/>
	<path class="st8" d="M50.7,412.6c-3.4,3.4-3.4,9.3,0.4,12.9"/>
	<circle class="st14" cx="63.4" cy="418.9" r="3.8"/>
	<line class="st8" x1="48.2" y1="454.9" x2="78.6" y2="454.9"/>
	<line class="st8" x1="57.7" y1="439.8" x2="69.1" y2="439.8"/>
	<line class="st8" x1="64.5" y1="422.7" x2="72.9" y2="454.9"/>
	<line class="st8" x1="53.9" y1="454.9" x2="62.2" y2="422.5"/>
</g>
</svg>
