<?xml version="1.0" encoding="utf-8"?>
<!-- Generator: Adobe Illustrator 25.4.1, SVG Export Plug-In . SVG Version: 6.00 Build 0)  -->
<svg version="1.1" id="Layer_1" xmlns="http://www.w3.org/2000/svg" xmlns:xlink="http://www.w3.org/1999/xlink" x="0px" y="0px"
	 viewBox="0 0 24 24" style="enable-background:new 0 0 24 24;" xml:space="preserve">
<style type="text/css">
	.st0{fill:none;stroke:#19BB4C;stroke-width:1.5;stroke-linecap:round;stroke-linejoin:round;}
</style>
<path class="st0" d="M13.2,14.4c0,1.1-0.5,2-1.2,2.7c-0.6,0.6-1.5,0.9-2.4,0.9c-2,0-3.6-1.6-3.6-3.6c0-1.7,1.1-3.1,2.7-3.5
	c0.4,1,1.3,1.8,2.4,2.1c0.3,0.1,0.6,0.1,0.9,0.1s0.6,0,0.9-0.1C13.1,13.5,13.2,13.9,13.2,14.4z"/>
<path class="st0" d="M15.6,9.6c0,0.5-0.1,0.9-0.2,1.3c-0.4,1-1.3,1.8-2.4,2.1c-0.3,0.1-0.6,0.1-0.9,0.1s-0.6,0-0.9-0.1
	c-1.1-0.3-2-1.1-2.4-2.1c-0.2-0.4-0.2-0.9-0.2-1.3C8.4,7.6,10,6,12,6S15.6,7.6,15.6,9.6z"/>
<path class="st0" d="M18,14.4c0,2-1.6,3.6-3.6,3.6c-0.9,0-1.8-0.4-2.4-0.9c0.7-0.7,1.2-1.6,1.2-2.7c0-0.5-0.1-0.9-0.2-1.3
	c1.1-0.3,2-1.1,2.4-2.1C16.9,11.3,18,12.7,18,14.4z"/>
<path class="st0" d="M9,22h6c5,0,7-2,7-7V9c0-5-2-7-7-7H9C4,2,2,4,2,9v6C2,20,4,22,9,22z"/>
</svg>
